<svg xmlns="http://www.w3.org/2000/svg" viewBox="0 0 590.3 272.17"><defs><style>.cls-1{fill:#231f20;}.cls-2{font-size:162px;fill:#fff;font-family:AgencyFB-Bold, Agency FB;font-weight:700;}</style></defs><g id="Layer_2" data-name="Layer 2"><g id="LIST"><path class="cls-1" d="M589.49,242.7a20,20,0,0,1,0-40c.28,0,.54,0,.81,0V185.13c-.27,0-.53,0-.81,0a20,20,0,0,1,0-40c.28,0,.54,0,.81,0V127.6a20,20,0,0,1,0-39.9V70.07a20,20,0,0,1,0-39.9V0H0V30.21c.53,0,1.06-.08,1.61-.08a20,20,0,0,1,0,40c-.55,0-1.08,0-1.61-.08V87.74c.53,0,1.06-.08,1.61-.08a20,20,0,0,1,0,40c-.55,0-1.08,0-1.61-.08v17.63a20,20,0,0,1,20,20,20,20,0,0,1-20,20v17.55a20,20,0,0,1,20,20,20,20,0,0,1-20,20v29.47H590.3V242.66C590,242.67,589.77,242.7,589.49,242.7ZM24.7,258.29a3.06,3.06,0,1,1,3.11-3.06A3.08,3.08,0,0,1,24.7,258.29Zm0-241.17a3.05,3.05,0,1,1,3.11-3.05A3.07,3.07,0,0,1,24.7,17.12ZM55.27,258.29a3.06,3.06,0,1,1,3.11-3.06A3.08,3.08,0,0,1,55.27,258.29Zm0-241.17a3.05,3.05,0,1,1,3.11-3.05A3.08,3.08,0,0,1,55.27,17.12ZM86.86,258.29a3.06,3.06,0,1,1,3.1-3.06A3.08,3.08,0,0,1,86.86,258.29Zm0-241.17A3.05,3.05,0,1,1,90,14.07,3.08,3.08,0,0,1,86.86,17.12Zm31.58,241.17a3.06,3.06,0,1,1,3.11-3.06A3.08,3.08,0,0,1,118.44,258.29Zm0-241.17a3.05,3.05,0,1,1,3.11-3.05A3.08,3.08,0,0,1,118.44,17.12ZM150,258.29a3.06,3.06,0,1,1,3.11-3.06A3.08,3.08,0,0,1,150,258.29Zm0-241.17a3.05,3.05,0,1,1,3.11-3.05A3.08,3.08,0,0,1,150,17.12Zm31.58,241.17a3.06,3.06,0,1,1,3.11-3.06A3.09,3.09,0,0,1,181.61,258.29Zm0-241.17a3.05,3.05,0,1,1,3.11-3.05A3.08,3.08,0,0,1,181.61,17.12ZM213.2,258.29a3.06,3.06,0,1,1,3.11-3.06A3.08,3.08,0,0,1,213.2,258.29Zm0-241.17a3.05,3.05,0,1,1,3.11-3.05A3.08,3.08,0,0,1,213.2,17.12Zm31.58,241.17a3.06,3.06,0,1,1,3.11-3.06A3.09,3.09,0,0,1,244.78,258.29Zm0-241.17a3.05,3.05,0,1,1,3.11-3.05A3.08,3.08,0,0,1,244.78,17.12Zm31.59,241.17a3.06,3.06,0,1,1,3.11-3.06A3.08,3.08,0,0,1,276.37,258.29Zm0-241.17a3.05,3.05,0,1,1,3.11-3.05A3.08,3.08,0,0,1,276.37,17.12ZM308,258.29a3.06,3.06,0,1,1,3.11-3.06A3.09,3.09,0,0,1,308,258.29Zm0-241.17a3.05,3.05,0,1,1,3.11-3.05A3.08,3.08,0,0,1,308,17.12Zm31.59,241.17a3.06,3.06,0,1,1,3.11-3.06A3.08,3.08,0,0,1,339.54,258.29Zm0-241.17a3.05,3.05,0,1,1,3.11-3.05A3.08,3.08,0,0,1,339.54,17.12Zm31.58,241.17a3.06,3.06,0,1,1,3.11-3.06A3.08,3.08,0,0,1,371.12,258.29Zm0-241.17a3.05,3.05,0,1,1,3.11-3.05A3.07,3.07,0,0,1,371.12,17.12Zm31.59,241.17a3.06,3.06,0,1,1,3.11-3.06A3.08,3.08,0,0,1,402.71,258.29Zm0-241.17a3.05,3.05,0,1,1,3.11-3.05A3.08,3.08,0,0,1,402.71,17.12Zm31.58,241.17a3.06,3.06,0,1,1,3.11-3.06A3.08,3.08,0,0,1,434.29,258.29Zm0-241.17a3.05,3.05,0,1,1,3.11-3.05A3.07,3.07,0,0,1,434.29,17.12Zm31.59,241.17a3.06,3.06,0,1,1,3.11-3.06A3.08,3.08,0,0,1,465.88,258.29Zm0-241.17A3.05,3.05,0,1,1,469,14.07,3.08,3.08,0,0,1,465.88,17.12Zm31.59,241.17a3.06,3.06,0,1,1,3.1-3.06A3.08,3.08,0,0,1,497.47,258.29Zm0-241.17a3.05,3.05,0,1,1,3.1-3.05A3.08,3.08,0,0,1,497.47,17.12Zm31.58,241.17a3.06,3.06,0,1,1,3.11-3.06A3.08,3.08,0,0,1,529.05,258.29Zm0-241.17a3.05,3.05,0,1,1,3.11-3.05A3.08,3.08,0,0,1,529.05,17.12Zm31.59,241.17a3.06,3.06,0,1,1,3.1-3.06A3.08,3.08,0,0,1,560.64,258.29Zm0-241.17a3.05,3.05,0,1,1,3.1-3.05A3.08,3.08,0,0,1,560.64,17.12Z"/><text class="cls-2" transform="translate(66.47 191.31)">COUPON</text></g></g></svg>