<svg xmlns="http://www.w3.org/2000/svg" viewBox="0 0 540.06 134.87"><defs><style>.cls-1{fill:#0b0b0b;}.cls-2{fill:#fff;}</style></defs><g id="Layer_2" data-name="Layer 2"><g id="Layer_1-2" data-name="Layer 1"><path class="cls-1" d="M450.21,49.76c-1.93,2.09-3.77,4.13-5.68,6.1a17.36,17.36,0,0,1-9.48,5.22,12.17,12.17,0,0,1-9.51-2.18L424.23,58c-1.73,2.15-3.7,4-6.52,4.48a7.65,7.65,0,0,1-7.42-2.7,24.55,24.55,0,0,1-1.79,2C406,64,403.2,65.92,399.62,66A8.88,8.88,0,0,1,392,62l-.35-.47c-1.1,1.2-2.13,2.4-3.24,3.53a8.83,8.83,0,0,1-9.58,2.26c-1.44-.48-2.6-1.83-4-2.85-1.41,2.91-3.67,5.18-7.53,5.23s-6.15-2.23-8.11-4.89c-3,.12-4.29,2.43-5.85,4.33a17.63,17.63,0,0,1-7.8,5.74,12.93,12.93,0,0,1-5.89.45,14.5,14.5,0,0,1-8.08-4.08c-.14-.13-.3-.25-.46-.39-1.57,1.7-3,3.46-4.66,5-2.93,2.76-6.36,4.34-10.47,3.28s-6.59-4.08-7.83-8.11c-.16-.53-.29-1.07-.46-1.73-1.7,2.36-3.24,4.68-5,6.85-3.06,3.85-6.26,7.6-10.78,9.85a10.57,10.57,0,0,1-15.34-6.83c-.05-.18-.09-.36-.19-.79-.42.78-.72,1.36-1,1.93-3.45,6.12-8.8,10-15.1,12.72a83.49,83.49,0,0,1-26.68,7.08,42.5,42.5,0,0,1-10-.26c-4.87-.76-8.66-3.17-9.51-8.64a26.17,26.17,0,0,1,.16-4.79A9.75,9.75,0,0,1,208.76,82c-4.41,7.09-11.49,6.3-15.39.14-1.74.63-3.47,1-4.67,2.84a18.46,18.46,0,0,1-7.35,6.69c-4.76,2.29-9.29,1.74-13.59-1.15a36.29,36.29,0,0,1-2.88-2.36l-5,4.82c-2.89,2.78-6.17,4.87-10.23,5.3a35.94,35.94,0,0,1-5.48-.14c-1.61-.08-3.21-.22-4.84-.33-.68,3.15-1.33,6-1.92,8.92a29.7,29.7,0,0,1-3.94,10.48c-2.4,3.65-5.85,5.34-10.06,3.27a7.64,7.64,0,0,1-3.55-4.22,19.6,19.6,0,0,1-.9-10.59c.18-1.21.43-2.41.65-3.67-5.63,3.59-11,3.4-14.5-.45-5.6,6.17-12.64,4.79-17.44-.8-1.13.39-2.29.7-3.36,1.19a4,4,0,0,0-1.22,1.24c-2.09,2.69-4.24,5.28-7.33,6.93a12.94,12.94,0,0,1-12.7,0,36.7,36.7,0,0,1-3.86-2.66c-.89,1.25-1.82,2.62-2.8,3.95-5.29,7.13-11.12,13.71-18.67,18.56a28.48,28.48,0,0,1-20.42,4.6,18.2,18.2,0,0,1-11.93-7.34A27.41,27.41,0,0,1,.42,114.62C-.76,107,.66,99.7,3.13,92.54A118.89,118.89,0,0,1,20,61.25a76,76,0,0,1,11.78-13c4.24-3.64,8.79-6.9,14.34-8.41,6.62-1.81,12.58,1.41,15.39,7.53A22.6,22.6,0,0,1,63.11,60c-.75,5.82-3,11.12-5.55,16.34A85.92,85.92,0,0,1,45.85,94.22a31.27,31.27,0,0,1-7.68,6.94,9.87,9.87,0,0,1-13.8-4.79l-.23-.63c-1.56,5.19-2.73,10.14-.86,15.31.92,2.52,2.54,3.25,5.21,2.54,4.65-1.24,8.35-4,11.8-7.26A103.73,103.73,0,0,0,52.43,92.49a5.55,5.55,0,0,0,.83-2.38,30.87,30.87,0,0,1,4.07-11A34,34,0,0,1,67.89,67.53c3.49-2.26,7.26-3.7,11.52-3.12a8.29,8.29,0,0,1,7.32,5.84,11.3,11.3,0,0,0,1.69,2.44c1.17-1.92,2.3-3.66,3.3-5.47,2-3.66,5.24-5.26,9.24-5.74a11.79,11.79,0,0,1,5.87.5c1,.4,2,1,3.11,1.52.94-1.3,2-2.79,3.08-4.24a9.72,9.72,0,0,1,5.89-3.81,7.45,7.45,0,0,1,8.82,6c.34,1.49.47,3,.72,4.65.81-1.56,1.61-3.13,2.44-4.69,2.52-4.71,4.93-9.5,7.63-14.11,2.55-4.37,6.75-6.45,11.63-6.7,3.9-.2,7.48,2.72,7,8a30.8,30.8,0,0,1-.66,3.29,35.3,35.3,0,0,1,5.27,1.31c1.76.72,2.79,2.31,3.4,4.35,1.19-1.4,2.21-2.75,3.38-3.95,3.93-4.06,8.29-7.41,14.2-7.9,3.73-.31,7,.64,9.21,3.91.15.23.28.48.41.73.69,1.3,1.37,2.6,2.14,4,1.09-1.56,2-2.89,2.9-4.16,3-4,9.44-6.33,14.65-2.83,1.63-1.55,3.19-3.2,4.91-4.67,2.05-1.76,4.32-3.17,7.18-3.17a.86.86,0,0,0,.63-.4c2.59-4.54,6.67-7.45,11-10.06,8.15-4.93,17.09-7.6,26.44-9a37.84,37.84,0,0,1,10.36-.53c6.25.77,9.38,4.1,9.4,10.37,0,1.93-.21,3.85-.31,5.46,2.19-.69,4.66-1.42,7.09-2.26a2.21,2.21,0,0,0,1-1.18,17.34,17.34,0,0,1,4.4-6.33,10.78,10.78,0,0,1,6.68-2.88,14.21,14.21,0,0,1,4.23.22,6.44,6.44,0,0,1,4.3,8.06c-.16.53-.33,1.06-.54,1.76.73.26,1.37.55,2,.72a7.65,7.65,0,0,1,4,1.8,1.42,1.42,0,0,0,1.14.2c1.56-.35,3.08-.82,4.64-1.19,4.36-1,7.88.72,9.83,4.81l.55,1.18c.84-1.07,1.56-2.09,2.38-3,3.34-3.79,7.14-7,12.07-8.47a12.42,12.42,0,0,1,8.23,0,8,8,0,0,1,5.08,5.2,10.83,10.83,0,0,0,1.88,2.66c.7-1.13,1.29-2.2,2-3.2,2.63-3.79,6.19-5.85,10.89-5.27a24.88,24.88,0,0,1,4.57,1.47c1.2-1.09,2.53-2.33,3.91-3.51,2.92-2.51,6.15-4,10.11-2.9,2.28.61,3.85,2.18,5.33,4.1.9-1.09,1.72-2.14,2.61-3.14,2.58-2.91,6.09-4.13,9.6-1.89a11.09,11.09,0,0,1,3,3c2.4,3.49,3.36,5.88,2.51,9.66l1.74.4a60.49,60.49,0,0,1,13.58-18.8,20.51,20.51,0,0,1,6.81-4.57c5.4-2.06,10.68.05,13,5.33l.41.91c1.8-1.85,3.48-3.74,5.33-5.45a21,21,0,0,1,11.54-5.61c4.12-.57,8.38,1.41,10,4.83.58,1.23,1.27,2.4,2,3.81,1-1.48,1.72-2.64,2.46-3.8,3.1-4.82,10.15-6.69,15-3.26.06,0,.15,0,.12,0A60.81,60.81,0,0,1,502,4.33c3.95-2.93,7-3.52,10.87-1.51A23.37,23.37,0,0,1,516.67,6c.72-.87,1.54-1.94,2.45-2.92a8.15,8.15,0,0,1,5.39-3,6.1,6.1,0,0,1,4.4,1.2c3.42,2.76,5.7,6.23,5.65,10.84a11.94,11.94,0,0,1-.28,1.84c3.19.41,4.48,2.61,5.21,5.44s1,5.52-.5,8a33.19,33.19,0,0,1-3.86,5c-2.58,2.94-5.18,5.86-7.93,8.65a12.65,12.65,0,0,1-6,3.49c-4.23,1.05-8-.34-10.25-4,0-.06-.13-.08,0,0a58.14,58.14,0,0,1-4.87,4.59c-3.34,2.53-8.9,2.47-11.6-1.78-.05-.09-.18-.13,0,0a33.54,33.54,0,0,1-4,4.09,7.78,7.78,0,0,1-9.7-.92,22.69,22.69,0,0,1-1.9-2.14,1.26,1.26,0,0,0-1.59-.44,6.4,6.4,0,0,0-3.72,2.83,20.57,20.57,0,0,1-6.12,5.81A13.11,13.11,0,0,1,457.3,54,15.9,15.9,0,0,1,450.21,49.76ZM138.9,64.33l.16.06a4.69,4.69,0,0,1-.12.75c-1.69,5.24-3.27,10.51-5.11,15.69-1.53,4.31-3.32,8.54-5.1,12.76a54.92,54.92,0,0,0-3.95,11.62c-.54,3-.82,6,.41,9,.71,1.68,1.92,1.84,3,.39,1.94-2.5,2.69-5.49,3.37-8.48.86-3.77,1.64-7.56,2.48-11.33.23-1,.55-2,.74-2.72a19.2,19.2,0,0,0,4.48,0,7.35,7.35,0,0,1,3.61,0c3.35.75,6.76,1.25,9.81-.9a34.27,34.27,0,0,0,5.13-4.25c2.17-2.27,4.1-4.77,6.13-7.18.49-.58,1-1.15,1.54-1.79a16.35,16.35,0,0,0,5.37,7.83,7.87,7.87,0,0,0,8,.71,20.41,20.41,0,0,0,7-7.59,1.85,1.85,0,0,1,1.59-1,8.55,8.55,0,0,0,6-3.29c.61-.75,1.3-1.43,2.06-2.26l.26,1.1a15.64,15.64,0,0,0,3.47,7,2.15,2.15,0,0,0,3.7-.32c1-1.61,1.95-3.29,2.8-5a72.88,72.88,0,0,1,7.58-12.45c1.23-1.56,2.6-3,3.91-4.52l.27.2a2.32,2.32,0,0,1-.07.46c-1.33,3.66-2.72,7.31-4,11-.94,2.71-1.44,5.47-.36,8.29,1,2.58,3,3.53,5.4,2.19a14.73,14.73,0,0,0,4.13-3.36c2.62-3.15,4.92-6.57,7.55-9.72a3.91,3.91,0,0,0,.64-4c-2,1.73-4.08,3.67-6.29,5.5a10.65,10.65,0,0,1-2.93,1.75c-1.15.42-1.91,0-2-1.2a9.77,9.77,0,0,1,.59-4.39c1.75-3.71,3.84-7.25,5.7-10.91a5.41,5.41,0,0,0,.86-3.11,16.07,16.07,0,0,0-1.93-4.57c-.72-1.25-1.44-1.37-2.55-.43a65.25,65.25,0,0,0-6.21,5.77,84.39,84.39,0,0,0-9.78,13.57q-1.35,2.27-2.88,4.41c-.58.8-1.27.68-1.62-.23a2.29,2.29,0,0,1-.1-1.39A18.07,18.07,0,0,1,203,64.48c1.77-3.26,3.69-6.44,5.43-9.72a3.14,3.14,0,0,0,.18-2.45c-.44-.92-1.54-1.06-2.61-1a6.18,6.18,0,0,0-4.73,3.13,42.19,42.19,0,0,0-6.23,14,1.37,1.37,0,0,1-.23.66,46.73,46.73,0,0,1-3.51,3.25,1.8,1.8,0,0,1-2.69-.18c.08-.26.16-.53.26-.79A24.07,24.07,0,0,0,190.28,59c-.32-2-1.06-3.12-3-3.3a3,3,0,0,1-.56-.16c.94-2.76.42-3.8-2-4.19a5.35,5.35,0,0,0-1.2,0,13.44,13.44,0,0,0-6.52,2.42c-4.41,3-7.37,7.11-9.77,11.73a23.21,23.21,0,0,0-2.36,8,2.73,2.73,0,0,1-.31,1.34,32.2,32.2,0,0,1-9.12,8.52,9.09,9.09,0,0,1-6.32,1.12c.17-.25.28-.41.4-.57,3.13-4.43,6.43-8.74,8.66-13.75a17.26,17.26,0,0,0,1.56-10.59c-.28-1.44-1-2-2.37-1.56a18.75,18.75,0,0,0-4.42,2c-3.57,2.38-6.06,5.86-8.84,9-1.2,1.37-2.42,2.7-3.82,4.25a4.64,4.64,0,0,1,.07-.77c2.26-6.69,4.56-13.36,8.8-19.17a19.09,19.09,0,0,0,2.18-4.63c.58-1.52-.2-2.64-1.55-2.38a13,13,0,0,0-2.72.86c-2.86,1.25-4.33,3.85-5.7,6.4-3.19,5.93-6.09,12-9.34,17.93-2.85,5.16-5.63,10.43-10.23,14.35a13.14,13.14,0,0,1-3,2.29c-2.25.94-3.39.37-3.43-1.78a12.46,12.46,0,0,1,.71-4.78c1.7-4.29,3.56-8.53,5.54-12.71a8.44,8.44,0,0,0,.54-6.25,1.76,1.76,0,0,0-2.64-1.3,4.17,4.17,0,0,0-1.7,1.24c-2,2.81-4.18,5.52-5.68,8.57-3.49,7.1-8.67,12.88-13.79,18.74-1.29,1.47-2.67,1.12-3-.74-.32-1.66-.6-3.46.53-4.94,1.74-2.32,3.69-4.49,5.42-6.82a26.2,26.2,0,0,0,4.28-8.11c.44-1.51.07-2.07-1.46-2.08a23.68,23.68,0,0,0-4,.38A4.5,4.5,0,0,0,96.66,70c-1,1.88-2.19,3.71-3.25,5.58-2.08,3.68-4.26,7.33-4.46,11.73a1,1,0,0,1-.31.61c-1.09,1-2.15,2.16-3.33,3.1a1.88,1.88,0,0,1-2.82-.15,28,28,0,0,0,2-11.21c-.08-3.42-.85-4.54-3.79-5.43-.06,0-.09-.12-.12-.18,1.47-2.94-.36-4-2.72-4.07a5.92,5.92,0,0,0-.84,0c-3,.22-5.5,1.71-7.79,3.58a28.13,28.13,0,0,0-6,6.78c-2.44,3.84-4.43,7.86-4.5,12.57a2,2,0,0,1-.42,1.08A117.64,117.64,0,0,1,47,107.73c-3.72,3.77-7.63,7.27-12.42,9.66a17.24,17.24,0,0,1-8.74,2.09,8,8,0,0,1-6.09-3.06c-2.35-2.88-3.07-6.35-3.23-10-.27-5.78,1.44-11.19,3.38-16.53a99.2,99.2,0,0,1,8.49-17.39,84.61,84.61,0,0,1,13.09-17.2,27.23,27.23,0,0,1,4.89-3.79c2.19-1.34,3.81-.33,4.18,2.21.4,2.76-.41,5.3-1.34,7.8a61.18,61.18,0,0,1-7.46,14.15,19,19,0,0,1-2,2.12l-.25-.26L40,74.76l-.38-.21a7.43,7.43,0,0,0-1.24,1.12C36.23,78.74,34,81.78,32.07,85a15.21,15.21,0,0,0-2.64,6.87c-.11,1.51,0,2.88,1.45,3.92a4.46,4.46,0,0,0,5.6-.33,51,51,0,0,0,9.51-11c4.4-6.45,8.3-13.16,10.43-20.75,1.16-4.15,1.82-8.36.36-12.59-1.66-4.8-5.13-7.31-10.28-5.36a31.8,31.8,0,0,0-5.86,2.94,57.85,57.85,0,0,0-13.73,12.9A121.88,121.88,0,0,0,12.24,85.21c-3.45,7.15-6.13,14.55-6.48,22.61A26.63,26.63,0,0,0,8.18,121a13.39,13.39,0,0,0,8,7.33c5.1,1.63,10,.75,14.79-1.33,5.67-2.48,10.15-6.58,14.25-11.09A134.12,134.12,0,0,0,58.73,97.65c.19-.3.43-.58.67-.91a18.82,18.82,0,0,0,4.44,6.91,7.73,7.73,0,0,0,10.89.14,60.77,60.77,0,0,0,5-6.08,2.42,2.42,0,0,1,1.77-1.16,8.63,8.63,0,0,0,5.83-3.16c.64-.75,1.31-1.46,2-2.28.22.57.34,1,.55,1.46a34.37,34.37,0,0,0,2.65,4.9c2,2.65,5.49,3.62,7.87.38,2.24-3,4.23-6.28,6.18-9.52,1.37-2.27,2.5-4.7,3.73-7-.19,1.56-.6,3-.89,4.57a57.07,57.07,0,0,0-1.28,7.76,6.81,6.81,0,0,0,1.3,4.08c1.19,1.63,3.77,1.68,5.62.21a31.72,31.72,0,0,0,4.65-4.47A122.77,122.77,0,0,0,133,74.55C134.92,71.12,136.93,67.74,138.9,64.33ZM414.53,41.66c-1.08,1.31-2,2.57-3,3.69a34.29,34.29,0,0,1-3.94,3.78,2.73,2.73,0,0,1-4.23-1.34,4.7,4.7,0,0,1,.31-4c1.39-2.56,2.83-5.08,4.29-7.59,1.13-1.94,2.51-3.81,1-6.15-.42-.63-.82-1.28-1.27-1.88-1.29-1.69-2.27-1.7-3.6,0Q397.47,36.46,391,44.81q-3.1,4-6.22,7.9a1,1,0,0,1,.11-.74c1.89-4,3.87-8,5.64-12.14a49,49,0,0,0,2.28-6.91,3.41,3.41,0,0,0-1.53-3.85,3.18,3.18,0,0,0-3.91.11,20.37,20.37,0,0,0-4.05,3.51c-2.87,3.57-5.55,7.3-8.28,11-1.9,2.56-3.72,5.18-5.66,7.71-.28.37-1,.37-1.55.54-.13-.51-.5-1.09-.36-1.51a29.48,29.48,0,0,1,2-4.95c1.59-2.9,3.44-5.64,5.06-8.52,1-1.73.26-3-1.69-3.26-2.51-.31-4.26,1-5.58,3a43,43,0,0,0-5.89,13.28,7.43,7.43,0,0,1-2.58,3.85,8.12,8.12,0,0,1-2.52,1.52c-1,.36-1.62-.38-1.26-1.35a29.61,29.61,0,0,0,1.56-11.55c-.11-2.58-1.08-3.72-3.55-4.32a.93.93,0,0,1-.26-.18c1.08-2.45.22-4-2.4-4.07a12.88,12.88,0,0,0-4.42.83,19.13,19.13,0,0,0-7.68,5.73c-3.41,3.9-6.22,8.23-7,13.39a9.45,9.45,0,0,1-3.57,6.5,22.79,22.79,0,0,1-4.48,3.32c-2.29,1-4.17.32-3.84-2.62a22.47,22.47,0,0,1,3.18-9c.81-1.37,1.63-2.75,2.53-4.06,1.54-2.21,1.37-4.37,0-6.6-.95-1.6-1.58-2-3.42-1.54-2.08.54-4.13,1.21-6.19,1.85-1.69.53-3.38,1.09-5.14,1.67a27,27,0,0,0,.69-3.12c.08-.93-.54-1.32-1.4-.93a5.76,5.76,0,0,0-1.7,1.07,20.7,20.7,0,0,0-5.67,10.74c-.55,2.69.16,4.66,3.49,5.29a37.19,37.19,0,0,1-2.94,5.36A62.4,62.4,0,0,1,297,68.09c-1.35,1.32-2.75,2.7-4.77,3a2.14,2.14,0,0,1-2.69-1.55,10.33,10.33,0,0,1-.34-6.37c1.23-4.64,2.8-9.2,4.29-13.78a1.31,1.31,0,0,1,.94-.61c1.61-.24,3.24-.37,4.85-.63a1.59,1.59,0,0,0,1.05-.72c1-2,2-4,2.91-6,.64-1.43,1.15-2.92,1.76-4.48h-4.83c.15-.34.26-.62.4-.9,1-1.92,1.95-3.83,2.92-5.76.8-1.59.18-2.16-1.55-2.12a6.36,6.36,0,0,0-4.38,1.95,16.13,16.13,0,0,0-3.5,6.32c-.37,1-.76,1.72-2.06,1.89a38.64,38.64,0,0,0-5.58,1.32,6.46,6.46,0,0,0-4.27,3.4c-.94,2-1.72,4-2.46,6.09a11.85,11.85,0,0,0-.37,2.39l8.92-2.27L287.42,51a70.84,70.84,0,0,1-7.58,13.69c-1.22,1.61-.84,2.91-.38,4.61l3.61-4.53c-.25,1.27-.48,2.24-.62,3.22-.47,3.25-1.38,6.47-.36,9.81a5,5,0,0,0,5.9,3.56,11.57,11.57,0,0,0,5-3.09c4.05-3.75,7.07-8.31,10.21-12.8,2.13-3.05,4.44-6,5.61-9.56A5.13,5.13,0,0,1,312.72,52a60.4,60.4,0,0,0,6.09-2.28c-.51,1-.84,1.63-1.21,2.27a36.13,36.13,0,0,0-4.45,11.68A10.24,10.24,0,0,0,315,72a4.12,4.12,0,0,0,4.81,1.31c2.5-1,4.1-3,5.7-5,2.11-2.54,3.93-5.31,5.9-8a5.6,5.6,0,0,1,.27.58,14.84,14.84,0,0,0,5.19,7.26,7.67,7.67,0,0,0,8.76.28,20.82,20.82,0,0,0,6.15-7.07,2,2,0,0,1,1.69-1.09,8.29,8.29,0,0,0,5.35-2.6,20.79,20.79,0,0,1,2.53-2,15.91,15.91,0,0,0,3.59,7c1.69,1.87,3.63,1.4,4.54-.62a56.79,56.79,0,0,1,2.65-5.5c2.3-3.92,4.7-7.79,7.14-11.63a22.4,22.4,0,0,1,2.65-3.2c.27-.29,1.05-.52,1.24-.36a1.9,1.9,0,0,1,.47,1.35,5.89,5.89,0,0,1-.41,1.73c-1.17,3.48-2.4,6.93-3.5,10.43a8.55,8.55,0,0,0-.48,4.55c.57,2.45,2.57,3.34,4.56,1.81a10,10,0,0,0,2.41-2.62,164.64,164.64,0,0,1,13.36-19.42c.5-.62,1.07-1.17,1.62-1.75a2.16,2.16,0,0,1-.18,1c-1.68,4.86-3.37,9.71-5,14.57a6.77,6.77,0,0,0,.11,4.57c.66,1.79,2.34,3.1,4.21,2.31a11.48,11.48,0,0,0,4-2.44c3.27-3.48,6.25-7.23,9.48-10.75C415.3,45.23,415.28,43.66,414.53,41.66Zm22.58-12.2c.21,1,.41,1.65.47,2.29.1,1,.64,1.26,1.48,1.07a2.19,2.19,0,0,0,1.12-.6,19.68,19.68,0,0,0,5-10.8,3.88,3.88,0,0,0-3.91-4.57,7.1,7.1,0,0,0-4.74,2,57.38,57.38,0,0,0-12.38,14.63,12.28,12.28,0,0,0-2.24,7.19,19.07,19.07,0,0,0,4.17,11A9.64,9.64,0,0,0,431,55.27c3.44.93,6.19-.64,8.65-2.72A52.21,52.21,0,0,0,448,43c.86-1.18,1.74-2.34,2.67-3.59,1.27,3.17,2.73,5.94,5.49,7.87a7.82,7.82,0,0,0,9.25-.17,26.34,26.34,0,0,0,5.73-6.85,2.18,2.18,0,0,1,1.26-.81c1.92-.42,3.78-.87,5.24-2.37.9-.93,2-1.71,3-2.58-.23-.16-.17-.15-.16-.12.06.19.11.38.17.57.78,2.57,1.62,5.09,3.7,7,1.8,1.64,3.35,1.45,4.33-.78a115.49,115.49,0,0,1,9.49-16.61,31,31,0,0,1,3.11-3.76,1.27,1.27,0,0,1,1.17-.21,1.34,1.34,0,0,1,.46,1.09,11.08,11.08,0,0,1-.52,2.19c-1.32,4.26-2.76,8.48-3.91,12.77A5.58,5.58,0,0,0,499.1,40a2.07,2.07,0,0,0,2.87.87,7.36,7.36,0,0,0,3.55-3.24A145.55,145.55,0,0,1,516.37,21.4c1.28-1.58,2.58-3.14,3.87-4.71-.46,1.92-1.21,3.68-1.82,5.48-1.15,3.39-2.35,6.77-3.25,10.23a8.59,8.59,0,0,0,.21,4.32,3.36,3.36,0,0,0,4.78,2.1,12.19,12.19,0,0,0,3.45-2.33c3.27-3.58,6.32-7.38,9.6-11,1.46-1.59,1-3.11.5-4.93-.8,1-1.44,1.9-2.2,2.71a46.08,46.08,0,0,1-4.8,4.78A2.73,2.73,0,0,1,522.29,26a6.34,6.34,0,0,1,.47-3.13c1.34-2.67,2.9-5.23,4.36-7.84,2.15-3.85,2.41-3.6-.16-7.64-1.36-2.14-2.32-2.16-3.89-.17C517.92,13.8,512.8,20.39,507.66,27c-1.19,1.53-2.41,3-3.62,4.54,1.21-3,2.71-5.82,3.94-8.76,1.44-3.45,2.72-7,3.92-10.51a3.66,3.66,0,0,0-1.35-4.08A3.14,3.14,0,0,0,506.83,8,9.33,9.33,0,0,0,504.08,10c-2.83,3.4-5.62,6.84-8.28,10.36-2.31,3.06-4.4,6.28-6.67,9.36-.48.65-1.07,1.88-2.13,1.24-.88-.52-.61-1.69-.22-2.51,1-2.08,2-4.13,3.14-6.14,1.21-2.19,2.59-4.29,3.75-6.51.81-1.56.15-2.78-1.58-3.11a4.73,4.73,0,0,0-4.86,1.88A37,37,0,0,0,480.72,28a8.07,8.07,0,0,1-2.78,4.68,9.71,9.71,0,0,1-3,1.54c-.52.17-1.34-.09-.95-1.11a28.93,28.93,0,0,0,1.68-11.29c-.09-2.91-1.16-4.23-3.92-4.78,0-.11.07-.23.12-.34.95-2.42.06-3.79-2.54-3.86a11.56,11.56,0,0,0-6.77,2,29.09,29.09,0,0,0-8.41,8.74,24.79,24.79,0,0,0-4.26,12.16,1.17,1.17,0,0,1-.31.73c-2.29,2.28-4.52,4.62-6.93,6.77A35.38,35.38,0,0,1,438,46.38a7.9,7.9,0,0,1-5.42,1c-4-.52-6.34-5.34-4-8.65a59.72,59.72,0,0,1,5-5.89C434.61,31.75,435.75,30.76,437.11,29.46ZM229.91,79.7c-.57-.21-.75-.34-.93-.32a10.06,10.06,0,0,0-5.38,2c-2.24,1.67-2.93,4.19-3.63,6.68a5.49,5.49,0,0,0-.12,2.81c.69,2.46,2.89,3,5,3.37a39.53,39.53,0,0,0,12-.3,82.15,82.15,0,0,0,21.47-6.43c4.81-2.19,9-5,11.75-9.77a13,13,0,0,0,1.73-9.2c-.75-3.77-3.43-6.11-6.79-7.48A48.58,48.58,0,0,0,255.32,58c-5.95-1.08-12-1.71-18-2.45-2.3-.28-3.39-1.74-2.5-3.89a9.82,9.82,0,0,1,1.94-3,29.34,29.34,0,0,1,9.69-6.23,76.39,76.39,0,0,1,19.35-5.55,11.81,11.81,0,0,1,1.86.09c-2.68,3-6.48,4.64-7.19,8.8a2.72,2.72,0,0,0,1.31-.49c.87-.7,1.64-1.53,2.55-2.17,2.87-2,5.72-4.06,8.69-5.91a6.34,6.34,0,0,0,3-4.88A16.2,16.2,0,0,0,276,28.5c-.2-1.93-1-2.83-2.91-3.08a31.33,31.33,0,0,0-5.47-.26,66.29,66.29,0,0,0-18.78,4,49.44,49.44,0,0,0-15.52,8.55,15,15,0,0,0-4.25,5.55A25.23,25.23,0,0,0,227.66,57a4.43,4.43,0,0,0,2.77,3.55,43.48,43.48,0,0,0,14.68,3c5,.11,10.06-.09,14.87,1.8a13,13,0,0,1,5.68,3.92c-4.39,5.23-10.14,8.06-16.5,9.7-4.74,1.23-9.55,2.2-14.37,3.11a56.16,56.16,0,0,1-6.89.6,5.08,5.08,0,0,1-1.33-.3v-.35Zm46.16-37.65c-2.4,1.59-4.63,3-6.78,4.51s-4,3.3-6.26,4.56-6.58.21-7.63-2.67c-.35-1-.61-1.94-.92-3A42.15,42.15,0,0,0,244,50.28c4.15.64,8.29,1.06,12.33,1.92,7,1.5,13.78,3.58,18.82,9.43l2.65-4.12c-4.23-2.37-4.76-6.14-3.69-9.56C274.66,46.07,275.33,44.22,276.07,42.05Zm-44,32.26a6.84,6.84,0,0,1,1.48,1.18,1.63,1.63,0,0,0,2,.67c5.22-1.28,10.47-2.46,15.67-3.84a29.81,29.81,0,0,0,4.59-2.07,2.29,2.29,0,0,0-1.24-.55c-2.63-.15-5.27-.2-7.89-.41-3.21-.25-6.41-.63-9.62-.92a1.26,1.26,0,0,0-1,.31C234.71,70.51,233.43,72.39,232.09,74.31ZM421.92,48.14c0-1.62-.48-2.65-1.29-3a2.69,2.69,0,0,0-2.87.67,4.74,4.74,0,0,0-1.36,1.78c-.76,1.87-1.43,3.79-2,5.71a2.89,2.89,0,0,0,1,3.32c.89.54,2.11.24,3.21-.89A12.34,12.34,0,0,0,421.92,48.14Zm17.31-9.5c-1.22-.06-2.34-.46-2.93-.07a18.7,18.7,0,0,0-2.9,3l.27.29C435.79,41.5,437.36,40.18,439.23,38.64ZM42.41,63.26l-.31-.18L37.6,69l.22.24c.6-.17,1.49-.16,1.73-.55C40.6,66.92,41.47,65.07,42.41,63.26ZM295.53,61l.16.16c.84-.92,1.67-1.85,2.47-2.75l-1.05-2.13C296.54,58,296,59.48,295.53,61Z"/><path d="M77.19,77c-.71,2.43-1.41,4.57-2,6.75a14.18,14.18,0,0,0,.87,10.35,1,1,0,0,1,0,.92,41.33,41.33,0,0,1-3.54,3.21,5.87,5.87,0,0,1-4.13,1.25c-1.61-.11-3-1-3-2.66-.06-4.05,0-8.15,3-11.36,2.23-2.39,4.62-4.62,7-6.91C75.91,78,76.47,77.6,77.19,77Z"/><path d="M183.28,58.52c-.35,1-.74,2.08-1,3.14-1,3.44-2.07,6.9-1.18,10.54.26,1.07.81,2.07,1.15,3.12a1.15,1.15,0,0,1-.13,1,49.53,49.53,0,0,1-3.74,3.36,5.82,5.82,0,0,1-4.55,1,2.51,2.51,0,0,1-2.24-2.46c0-3.3-.32-6.7,1.78-9.68A47.73,47.73,0,0,1,183.28,58.52Z"/><path d="M137.93,84.29c2.5-5.56,5.19-10.56,9.17-14.74a11.37,11.37,0,0,1,3-2.06c1.38-.71,2.58,0,2.54,1.51a9.28,9.28,0,0,1-.78,3.81c-1.73,3.48-3.66,6.87-5.54,10.28a1.15,1.15,0,0,1-.91.5C143,82.82,140.58,83.26,137.93,84.29Z"/><path d="M349.08,40.73c-.73,3-1.52,5.89-2.12,8.8A11.37,11.37,0,0,0,348,57.41a1.18,1.18,0,0,1-.29,1.74c-1.22,1-2.37,2.12-3.61,3.12a5.48,5.48,0,0,1-4.22.88,2.4,2.4,0,0,1-2.28-2.36,38.31,38.31,0,0,1,.26-6.43c.38-2.68,2.18-4.67,4-6.53C344.18,45.38,346.67,43.08,349.08,40.73Z"/><path d="M468.36,20c-1.74,5.74-4.17,11.46-.66,17.56a31.49,31.49,0,0,1-4.6,3.79,8.45,8.45,0,0,1-4.24.74,2.14,2.14,0,0,1-2.07-2.24,58.89,58.89,0,0,1,.13-6.09,9.13,9.13,0,0,1,2.69-5.25c2.72-3,5.62-5.83,8.44-8.72Z"/><path class="cls-2" d="M450.21,49.76c-1.93,2.09-3.77,4.13-5.68,6.1a17.36,17.36,0,0,1-9.48,5.22,12.17,12.17,0,0,1-9.51-2.18L424.23,58c-1.73,2.15-3.7,4-6.52,4.48a7.65,7.65,0,0,1-7.42-2.7,24.55,24.55,0,0,1-1.79,2C406,64,403.2,65.92,399.62,66A8.88,8.88,0,0,1,392,62l-.35-.47c-1.1,1.2-2.13,2.4-3.24,3.53a8.83,8.83,0,0,1-9.58,2.26c-1.44-.48-2.6-1.83-4-2.85-1.41,2.91-3.67,5.18-7.53,5.23s-6.15-2.23-8.11-4.89c-3,.12-4.29,2.43-5.85,4.33a17.63,17.63,0,0,1-7.8,5.74,12.93,12.93,0,0,1-5.89.45,14.5,14.5,0,0,1-8.08-4.08c-.14-.13-.3-.25-.46-.39-1.57,1.7-3,3.46-4.66,5-2.93,2.76-6.36,4.34-10.47,3.28s-6.59-4.08-7.83-8.11c-.16-.53-.29-1.07-.46-1.73-1.7,2.36-3.24,4.68-5,6.85-3.06,3.85-6.26,7.6-10.78,9.85a10.57,10.57,0,0,1-15.34-6.83c-.05-.18-.09-.36-.19-.79-.42.78-.72,1.36-1,1.93-3.45,6.12-8.8,10-15.1,12.72a83.49,83.49,0,0,1-26.68,7.08,42.5,42.5,0,0,1-10-.26c-4.87-.76-8.66-3.17-9.51-8.64a26.17,26.17,0,0,1,.16-4.79A9.75,9.75,0,0,1,208.76,82c-4.41,7.09-11.49,6.3-15.39.14-1.74.63-3.47,1-4.67,2.84a18.46,18.46,0,0,1-7.35,6.69c-4.76,2.29-9.29,1.74-13.59-1.15a36.29,36.29,0,0,1-2.88-2.36l-5,4.82c-2.89,2.78-6.17,4.87-10.23,5.3a35.94,35.94,0,0,1-5.48-.14c-1.61-.08-3.21-.22-4.84-.33-.68,3.15-1.33,6-1.92,8.92a29.7,29.7,0,0,1-3.94,10.48c-2.4,3.65-5.85,5.34-10.06,3.27a7.64,7.64,0,0,1-3.55-4.22,19.6,19.6,0,0,1-.9-10.59c.18-1.21.43-2.41.65-3.67-5.63,3.59-11,3.4-14.5-.45-5.6,6.17-12.64,4.79-17.44-.8-1.13.39-2.29.7-3.36,1.19a4,4,0,0,0-1.22,1.24c-2.09,2.69-4.24,5.28-7.33,6.93a12.94,12.94,0,0,1-12.7,0,36.7,36.7,0,0,1-3.86-2.66c-.89,1.25-1.82,2.62-2.8,3.95-5.29,7.13-11.12,13.71-18.67,18.56a28.48,28.48,0,0,1-20.42,4.6,18.2,18.2,0,0,1-11.93-7.34A27.41,27.41,0,0,1,.42,114.62C-.76,107,.66,99.7,3.13,92.54A118.89,118.89,0,0,1,20,61.25a76,76,0,0,1,11.78-13c4.24-3.64,8.79-6.9,14.34-8.41,6.62-1.81,12.58,1.41,15.39,7.53A22.6,22.6,0,0,1,63.11,60c-.75,5.82-3,11.12-5.55,16.34A85.92,85.92,0,0,1,45.85,94.22a31.27,31.27,0,0,1-7.68,6.94,9.87,9.87,0,0,1-13.8-4.79l-.23-.63c-1.56,5.19-2.73,10.14-.86,15.31.92,2.52,2.54,3.25,5.21,2.54,4.65-1.24,8.35-4,11.8-7.26A103.73,103.73,0,0,0,52.43,92.49a5.55,5.55,0,0,0,.83-2.38,30.87,30.87,0,0,1,4.07-11A34,34,0,0,1,67.89,67.53c3.49-2.26,7.26-3.7,11.52-3.12a8.29,8.29,0,0,1,7.32,5.84,11.3,11.3,0,0,0,1.69,2.44c1.17-1.92,2.3-3.66,3.3-5.47,2-3.66,5.24-5.26,9.24-5.74a11.79,11.79,0,0,1,5.87.5c1,.4,2,1,3.11,1.52.94-1.3,2-2.79,3.08-4.24a9.72,9.72,0,0,1,5.89-3.81,7.45,7.45,0,0,1,8.82,6c.34,1.49.47,3,.72,4.65.81-1.56,1.61-3.13,2.44-4.69,2.52-4.71,4.93-9.5,7.63-14.11,2.55-4.37,6.75-6.45,11.63-6.7,3.9-.2,7.48,2.72,7,8a30.8,30.8,0,0,1-.66,3.29,35.3,35.3,0,0,1,5.27,1.31c1.76.72,2.79,2.31,3.4,4.35,1.19-1.4,2.21-2.75,3.38-3.95,3.93-4.06,8.29-7.41,14.2-7.9,3.73-.31,7,.64,9.21,3.91.15.23.28.48.41.73.69,1.3,1.37,2.6,2.14,4,1.09-1.56,2-2.89,2.9-4.16,3-4,9.44-6.33,14.65-2.83,1.63-1.55,3.19-3.2,4.91-4.67,2.05-1.76,4.32-3.17,7.18-3.17a.86.86,0,0,0,.63-.4c2.59-4.54,6.67-7.45,11-10.06,8.15-4.93,17.09-7.6,26.44-9a37.84,37.84,0,0,1,10.36-.53c6.25.77,9.38,4.1,9.4,10.37,0,1.93-.21,3.85-.31,5.46,2.19-.69,4.66-1.42,7.09-2.26a2.21,2.21,0,0,0,1-1.18,17.34,17.34,0,0,1,4.4-6.33,10.78,10.78,0,0,1,6.68-2.88,14.21,14.21,0,0,1,4.23.22,6.44,6.44,0,0,1,4.3,8.06c-.16.53-.33,1.06-.54,1.76.73.26,1.37.55,2,.72a7.65,7.65,0,0,1,4,1.8,1.42,1.42,0,0,0,1.14.2c1.56-.35,3.08-.82,4.64-1.19,4.36-1,7.88.72,9.83,4.81l.55,1.18c.84-1.07,1.56-2.09,2.38-3,3.34-3.79,7.14-7,12.07-8.47a12.42,12.42,0,0,1,8.23,0,8,8,0,0,1,5.08,5.2,10.83,10.83,0,0,0,1.88,2.66c.7-1.13,1.29-2.2,2-3.2,2.63-3.79,6.19-5.85,10.89-5.27a24.88,24.88,0,0,1,4.57,1.47c1.2-1.09,2.53-2.33,3.91-3.51,2.92-2.51,6.15-4,10.11-2.9,2.28.61,3.85,2.18,5.33,4.1.9-1.09,1.72-2.14,2.61-3.14,2.58-2.91,6.09-4.13,9.6-1.89a11.09,11.09,0,0,1,3,3c2.4,3.49,3.36,5.88,2.51,9.66l1.74.4a60.49,60.49,0,0,1,13.58-18.8,20.51,20.51,0,0,1,6.81-4.57c5.4-2.06,10.68.05,13,5.33l.41.91c1.8-1.85,3.48-3.74,5.33-5.45a21,21,0,0,1,11.54-5.61c4.12-.57,8.38,1.41,10,4.83.58,1.23,1.27,2.4,2,3.81,1-1.48,1.72-2.64,2.46-3.8,3.1-4.82,10.15-6.69,15-3.26.06,0,.15,0,.12,0A60.81,60.81,0,0,1,502,4.33c3.95-2.93,7-3.52,10.87-1.51A23.37,23.37,0,0,1,516.67,6c.72-.87,1.54-1.94,2.45-2.92a8.15,8.15,0,0,1,5.39-3,6.1,6.1,0,0,1,4.4,1.2c3.42,2.76,5.7,6.23,5.65,10.84a11.94,11.94,0,0,1-.28,1.84c3.19.41,4.48,2.61,5.21,5.44s1,5.52-.5,8a33.19,33.19,0,0,1-3.86,5c-2.58,2.94-5.18,5.86-7.93,8.65a12.65,12.65,0,0,1-6,3.49c-4.23,1.05-8-.34-10.25-4,0-.06-.13-.08,0,0a58.14,58.14,0,0,1-4.87,4.59c-3.34,2.53-8.9,2.47-11.6-1.78-.05-.09-.18-.13,0,0a33.54,33.54,0,0,1-4,4.09,7.78,7.78,0,0,1-9.7-.92,22.69,22.69,0,0,1-1.9-2.14,1.26,1.26,0,0,0-1.59-.44,6.4,6.4,0,0,0-3.72,2.83,20.57,20.57,0,0,1-6.12,5.81A13.11,13.11,0,0,1,457.3,54,15.9,15.9,0,0,1,450.21,49.76ZM138.9,64.33l.16.06a4.69,4.69,0,0,1-.12.75c-1.69,5.24-3.27,10.51-5.11,15.69-1.53,4.31-3.32,8.54-5.1,12.76a54.92,54.92,0,0,0-3.95,11.62c-.54,3-.82,6,.41,9,.71,1.68,1.92,1.84,3,.39,1.94-2.5,2.69-5.49,3.37-8.48.86-3.77,1.64-7.56,2.48-11.33.23-1,.55-2,.74-2.72a19.2,19.2,0,0,0,4.48,0,7.35,7.35,0,0,1,3.61,0c3.35.75,6.76,1.25,9.81-.9a34.27,34.27,0,0,0,5.13-4.25c2.17-2.27,4.1-4.77,6.13-7.18.49-.58,1-1.15,1.54-1.79a16.35,16.35,0,0,0,5.37,7.83,7.87,7.87,0,0,0,8,.71,20.41,20.41,0,0,0,7-7.59,1.85,1.85,0,0,1,1.59-1,8.55,8.55,0,0,0,6-3.29c.61-.75,1.3-1.43,2.06-2.26l.26,1.1a15.64,15.64,0,0,0,3.47,7,2.15,2.15,0,0,0,3.7-.32c1-1.61,1.95-3.29,2.8-5a72.88,72.88,0,0,1,7.58-12.45c1.23-1.56,2.6-3,3.91-4.52l.27.2a2.32,2.32,0,0,1-.07.46c-1.33,3.66-2.72,7.31-4,11-.94,2.71-1.44,5.47-.36,8.29,1,2.58,3,3.53,5.4,2.19a14.73,14.73,0,0,0,4.13-3.36c2.62-3.15,4.92-6.57,7.55-9.72a3.91,3.91,0,0,0,.64-4c-2,1.73-4.08,3.67-6.29,5.5a10.65,10.65,0,0,1-2.93,1.75c-1.15.42-1.91,0-2-1.2a9.77,9.77,0,0,1,.59-4.39c1.75-3.71,3.84-7.25,5.7-10.91a5.41,5.41,0,0,0,.86-3.11,16.07,16.07,0,0,0-1.93-4.57c-.72-1.25-1.44-1.37-2.55-.43a65.25,65.25,0,0,0-6.21,5.77,84.39,84.39,0,0,0-9.78,13.57q-1.35,2.27-2.88,4.41c-.58.8-1.27.68-1.62-.23a2.29,2.29,0,0,1-.1-1.39A18.07,18.07,0,0,1,203,64.48c1.77-3.26,3.69-6.44,5.43-9.72a3.14,3.14,0,0,0,.18-2.45c-.44-.92-1.54-1.06-2.61-1a6.18,6.18,0,0,0-4.73,3.13,42.19,42.19,0,0,0-6.23,14,1.37,1.37,0,0,1-.23.66,46.73,46.73,0,0,1-3.51,3.25,1.8,1.8,0,0,1-2.69-.18c.08-.26.16-.53.26-.79A24.07,24.07,0,0,0,190.28,59c-.32-2-1.06-3.12-3-3.3a3,3,0,0,1-.56-.16c.94-2.76.42-3.8-2-4.19a5.35,5.35,0,0,0-1.2,0,13.44,13.44,0,0,0-6.52,2.42c-4.41,3-7.37,7.11-9.77,11.73a23.21,23.21,0,0,0-2.36,8,2.73,2.73,0,0,1-.31,1.34,32.2,32.2,0,0,1-9.12,8.52,9.09,9.09,0,0,1-6.32,1.12c.17-.25.28-.41.4-.57,3.13-4.43,6.43-8.74,8.66-13.75a17.26,17.26,0,0,0,1.56-10.59c-.28-1.44-1-2-2.37-1.56a18.75,18.75,0,0,0-4.42,2c-3.57,2.38-6.06,5.86-8.84,9-1.2,1.37-2.42,2.7-3.82,4.25a4.64,4.64,0,0,1,.07-.77c2.26-6.69,4.56-13.36,8.8-19.17a19.09,19.09,0,0,0,2.18-4.63c.58-1.52-.2-2.64-1.55-2.38a13,13,0,0,0-2.72.86c-2.86,1.25-4.33,3.85-5.7,6.4-3.19,5.93-6.09,12-9.34,17.93-2.85,5.16-5.63,10.43-10.23,14.35a13.14,13.14,0,0,1-3,2.29c-2.25.94-3.39.37-3.43-1.78a12.46,12.46,0,0,1,.71-4.78c1.7-4.29,3.56-8.53,5.54-12.71a8.44,8.44,0,0,0,.54-6.25,1.76,1.76,0,0,0-2.64-1.3,4.17,4.17,0,0,0-1.7,1.24c-2,2.81-4.18,5.52-5.68,8.57-3.49,7.1-8.67,12.88-13.79,18.74-1.29,1.47-2.67,1.12-3-.74-.32-1.66-.6-3.46.53-4.94,1.74-2.32,3.69-4.49,5.42-6.82a26.2,26.2,0,0,0,4.28-8.11c.44-1.51.07-2.07-1.46-2.08a23.68,23.68,0,0,0-4,.38A4.5,4.5,0,0,0,96.66,70c-1,1.88-2.19,3.71-3.25,5.58-2.08,3.68-4.26,7.33-4.46,11.73a1,1,0,0,1-.31.61c-1.09,1-2.15,2.16-3.33,3.1a1.88,1.88,0,0,1-2.82-.15,28,28,0,0,0,2-11.21c-.08-3.42-.85-4.54-3.79-5.43-.06,0-.09-.12-.12-.18,1.47-2.94-.36-4-2.72-4.07a5.92,5.92,0,0,0-.84,0c-3,.22-5.5,1.71-7.79,3.58a28.13,28.13,0,0,0-6,6.78c-2.44,3.84-4.43,7.86-4.5,12.57a2,2,0,0,1-.42,1.08A117.64,117.64,0,0,1,47,107.73c-3.72,3.77-7.63,7.27-12.42,9.66a17.24,17.24,0,0,1-8.74,2.09,8,8,0,0,1-6.09-3.06c-2.35-2.88-3.07-6.35-3.23-10-.27-5.78,1.44-11.19,3.38-16.53a99.2,99.2,0,0,1,8.49-17.39,84.61,84.61,0,0,1,13.09-17.2,27.23,27.23,0,0,1,4.89-3.79c2.19-1.34,3.81-.33,4.18,2.21.4,2.76-.41,5.3-1.34,7.8a61.18,61.18,0,0,1-7.46,14.15,19,19,0,0,1-2,2.12l-.25-.26L40,74.76l-.38-.21a7.43,7.43,0,0,0-1.24,1.12C36.23,78.74,34,81.78,32.07,85a15.21,15.21,0,0,0-2.64,6.87c-.11,1.51,0,2.88,1.45,3.92a4.46,4.46,0,0,0,5.6-.33,51,51,0,0,0,9.51-11c4.4-6.45,8.3-13.16,10.43-20.75,1.16-4.15,1.82-8.36.36-12.59-1.66-4.8-5.13-7.31-10.28-5.36a31.8,31.8,0,0,0-5.86,2.94,57.85,57.85,0,0,0-13.73,12.9A121.88,121.88,0,0,0,12.24,85.21c-3.45,7.15-6.13,14.55-6.48,22.61A26.63,26.63,0,0,0,8.18,121a13.39,13.39,0,0,0,8,7.33c5.1,1.63,10,.75,14.79-1.33,5.67-2.48,10.15-6.58,14.25-11.09A134.12,134.12,0,0,0,58.73,97.65c.19-.3.43-.58.67-.91a18.82,18.82,0,0,0,4.44,6.91,7.73,7.73,0,0,0,10.89.14,60.77,60.77,0,0,0,5-6.08,2.42,2.42,0,0,1,1.77-1.16,8.63,8.63,0,0,0,5.83-3.16c.64-.75,1.31-1.46,2-2.28.22.57.34,1,.55,1.46a34.37,34.37,0,0,0,2.65,4.9c2,2.65,5.49,3.62,7.87.38,2.24-3,4.23-6.28,6.18-9.52,1.37-2.27,2.5-4.7,3.73-7-.19,1.56-.6,3-.89,4.57a57.07,57.07,0,0,0-1.28,7.76,6.81,6.81,0,0,0,1.3,4.08c1.19,1.63,3.77,1.68,5.62.21a31.72,31.72,0,0,0,4.65-4.47A122.77,122.77,0,0,0,133,74.55C134.92,71.12,136.93,67.74,138.9,64.33ZM414.53,41.66c-1.08,1.31-2,2.57-3,3.69a34.29,34.29,0,0,1-3.94,3.78,2.73,2.73,0,0,1-4.23-1.34,4.7,4.7,0,0,1,.31-4c1.39-2.56,2.83-5.08,4.29-7.59,1.13-1.94,2.51-3.81,1-6.15-.42-.63-.82-1.28-1.27-1.88-1.29-1.69-2.27-1.7-3.6,0Q397.47,36.46,391,44.81q-3.1,4-6.22,7.9a1,1,0,0,1,.11-.74c1.89-4,3.87-8,5.64-12.14a49,49,0,0,0,2.28-6.91,3.41,3.41,0,0,0-1.53-3.85,3.18,3.18,0,0,0-3.91.11,20.37,20.37,0,0,0-4.05,3.51c-2.87,3.57-5.55,7.3-8.28,11-1.9,2.56-3.72,5.18-5.66,7.71-.28.37-1,.37-1.55.54-.13-.51-.5-1.09-.36-1.51a29.48,29.48,0,0,1,2-4.95c1.59-2.9,3.44-5.64,5.06-8.52,1-1.73.26-3-1.69-3.26-2.51-.31-4.26,1-5.58,3a43,43,0,0,0-5.89,13.28,7.43,7.43,0,0,1-2.58,3.85,8.12,8.12,0,0,1-2.52,1.52c-1,.36-1.62-.38-1.26-1.35a29.61,29.61,0,0,0,1.56-11.55c-.11-2.58-1.08-3.72-3.55-4.32a.93.93,0,0,1-.26-.18c1.08-2.45.22-4-2.4-4.07a12.88,12.88,0,0,0-4.42.83,19.13,19.13,0,0,0-7.68,5.73c-3.41,3.9-6.22,8.23-7,13.39a9.45,9.45,0,0,1-3.57,6.5,22.79,22.79,0,0,1-4.48,3.32c-2.29,1-4.17.32-3.84-2.62a22.47,22.47,0,0,1,3.18-9c.81-1.37,1.63-2.75,2.53-4.06,1.54-2.21,1.37-4.37,0-6.6-.95-1.6-1.58-2-3.42-1.54-2.08.54-4.13,1.21-6.19,1.85-1.69.53-3.38,1.09-5.14,1.67a27,27,0,0,0,.69-3.12c.08-.93-.54-1.32-1.4-.93a5.76,5.76,0,0,0-1.7,1.07,20.7,20.7,0,0,0-5.67,10.74c-.55,2.69.16,4.66,3.49,5.29a37.19,37.19,0,0,1-2.94,5.36A62.4,62.4,0,0,1,297,68.09c-1.35,1.32-2.75,2.7-4.77,3a2.14,2.14,0,0,1-2.69-1.55,10.33,10.33,0,0,1-.34-6.37c1.23-4.64,2.8-9.2,4.29-13.78a1.31,1.31,0,0,1,.94-.61c1.61-.24,3.24-.37,4.85-.63a1.59,1.59,0,0,0,1.05-.72c1-2,2-4,2.91-6,.64-1.43,1.15-2.92,1.76-4.48h-4.83c.15-.34.26-.62.4-.9,1-1.92,1.95-3.83,2.92-5.76.8-1.59.18-2.16-1.55-2.12a6.36,6.36,0,0,0-4.38,1.95,16.13,16.13,0,0,0-3.5,6.32c-.37,1-.76,1.72-2.06,1.89a38.64,38.64,0,0,0-5.58,1.32,6.46,6.46,0,0,0-4.27,3.4c-.94,2-1.72,4-2.46,6.09a11.85,11.85,0,0,0-.37,2.39l8.92-2.27L287.42,51a70.84,70.84,0,0,1-7.58,13.69c-1.22,1.61-.84,2.91-.38,4.61l3.61-4.53c-.25,1.27-.48,2.24-.62,3.22-.47,3.25-1.38,6.47-.36,9.81a5,5,0,0,0,5.9,3.56,11.57,11.57,0,0,0,5-3.09c4.05-3.75,7.07-8.31,10.21-12.8,2.13-3.05,4.44-6,5.61-9.56A5.13,5.13,0,0,1,312.72,52a60.4,60.4,0,0,0,6.09-2.28c-.51,1-.84,1.63-1.21,2.27a36.13,36.13,0,0,0-4.45,11.68A10.24,10.24,0,0,0,315,72a4.12,4.12,0,0,0,4.81,1.31c2.5-1,4.1-3,5.7-5,2.11-2.54,3.93-5.31,5.9-8a5.6,5.6,0,0,1,.27.58,14.84,14.84,0,0,0,5.19,7.26,7.67,7.67,0,0,0,8.76.28,20.82,20.82,0,0,0,6.15-7.07,2,2,0,0,1,1.69-1.09,8.29,8.29,0,0,0,5.35-2.6,20.79,20.79,0,0,1,2.53-2,15.91,15.91,0,0,0,3.59,7c1.69,1.87,3.63,1.4,4.54-.62a56.79,56.79,0,0,1,2.65-5.5c2.3-3.92,4.7-7.79,7.14-11.63a22.4,22.4,0,0,1,2.65-3.2c.27-.29,1.05-.52,1.24-.36a1.9,1.9,0,0,1,.47,1.35,5.89,5.89,0,0,1-.41,1.73c-1.17,3.48-2.4,6.93-3.5,10.43a8.55,8.55,0,0,0-.48,4.55c.57,2.45,2.57,3.34,4.56,1.81a10,10,0,0,0,2.41-2.62,164.64,164.64,0,0,1,13.36-19.42c.5-.62,1.07-1.17,1.62-1.75a2.16,2.16,0,0,1-.18,1c-1.68,4.86-3.37,9.71-5,14.57a6.77,6.77,0,0,0,.11,4.57c.66,1.79,2.34,3.1,4.21,2.31a11.48,11.48,0,0,0,4-2.44c3.27-3.48,6.25-7.23,9.48-10.75C415.3,45.23,415.28,43.66,414.53,41.66Zm22.58-12.2c.21,1,.41,1.65.47,2.29.1,1,.64,1.26,1.48,1.07a2.19,2.19,0,0,0,1.12-.6,19.68,19.68,0,0,0,5-10.8,3.88,3.88,0,0,0-3.91-4.57,7.1,7.1,0,0,0-4.74,2,57.38,57.38,0,0,0-12.38,14.63,12.28,12.28,0,0,0-2.24,7.19,19.07,19.07,0,0,0,4.17,11A9.64,9.64,0,0,0,431,55.27c3.44.93,6.19-.64,8.65-2.72A52.21,52.21,0,0,0,448,43c.86-1.18,1.74-2.34,2.67-3.59,1.27,3.17,2.73,5.94,5.49,7.87a7.82,7.82,0,0,0,9.25-.17,26.34,26.34,0,0,0,5.73-6.85,2.18,2.18,0,0,1,1.26-.81c1.92-.42,3.78-.87,5.24-2.37.9-.93,2-1.71,3-2.58-.23-.16-.17-.15-.16-.12.06.19.11.38.17.57.78,2.57,1.62,5.09,3.7,7,1.8,1.64,3.35,1.45,4.33-.78a115.49,115.49,0,0,1,9.49-16.61,31,31,0,0,1,3.11-3.76,1.27,1.27,0,0,1,1.17-.21,1.34,1.34,0,0,1,.46,1.09,11.08,11.08,0,0,1-.52,2.19c-1.32,4.26-2.76,8.48-3.91,12.77A5.58,5.58,0,0,0,499.1,40a2.07,2.07,0,0,0,2.87.87,7.36,7.36,0,0,0,3.55-3.24A145.55,145.55,0,0,1,516.37,21.4c1.28-1.58,2.58-3.14,3.87-4.71-.46,1.92-1.21,3.68-1.82,5.48-1.15,3.39-2.35,6.77-3.25,10.23a8.59,8.59,0,0,0,.21,4.32,3.36,3.36,0,0,0,4.78,2.1,12.19,12.19,0,0,0,3.45-2.33c3.27-3.58,6.32-7.38,9.6-11,1.46-1.59,1-3.11.5-4.93-.8,1-1.44,1.9-2.2,2.71a46.08,46.08,0,0,1-4.8,4.78A2.73,2.73,0,0,1,522.29,26a6.34,6.34,0,0,1,.47-3.13c1.34-2.67,2.9-5.23,4.36-7.84,2.15-3.85,2.41-3.6-.16-7.64-1.36-2.14-2.32-2.16-3.89-.17C517.92,13.8,512.8,20.39,507.66,27c-1.19,1.53-2.41,3-3.62,4.54,1.21-3,2.71-5.82,3.94-8.76,1.44-3.45,2.72-7,3.92-10.51a3.66,3.66,0,0,0-1.35-4.08A3.14,3.14,0,0,0,506.83,8,9.33,9.33,0,0,0,504.08,10c-2.83,3.4-5.62,6.84-8.28,10.36-2.31,3.06-4.4,6.28-6.67,9.36-.48.65-1.07,1.88-2.13,1.24-.88-.52-.61-1.69-.22-2.51,1-2.08,2-4.13,3.14-6.14,1.21-2.19,2.59-4.29,3.75-6.51.81-1.56.15-2.78-1.58-3.11a4.73,4.73,0,0,0-4.86,1.88A37,37,0,0,0,480.72,28a8.07,8.07,0,0,1-2.78,4.68,9.71,9.71,0,0,1-3,1.54c-.52.17-1.34-.09-.95-1.11a28.93,28.93,0,0,0,1.68-11.29c-.09-2.91-1.16-4.23-3.92-4.78,0-.11.07-.23.12-.34.95-2.42.06-3.79-2.54-3.86a11.56,11.56,0,0,0-6.77,2,29.09,29.09,0,0,0-8.41,8.74,24.79,24.79,0,0,0-4.26,12.16,1.17,1.17,0,0,1-.31.73c-2.29,2.28-4.52,4.62-6.93,6.77A35.38,35.38,0,0,1,438,46.38a7.9,7.9,0,0,1-5.42,1c-4-.52-6.34-5.34-4-8.65a59.72,59.72,0,0,1,5-5.89C434.61,31.75,435.75,30.76,437.11,29.46ZM229.91,79.7c-.57-.21-.75-.34-.93-.32a10.06,10.06,0,0,0-5.38,2c-2.24,1.67-2.93,4.19-3.63,6.68a5.49,5.49,0,0,0-.12,2.81c.69,2.46,2.89,3,5,3.37a39.53,39.53,0,0,0,12-.3,82.15,82.15,0,0,0,21.47-6.43c4.81-2.19,9-5,11.75-9.77a13,13,0,0,0,1.73-9.2c-.75-3.77-3.43-6.11-6.79-7.48A48.58,48.58,0,0,0,255.32,58c-5.95-1.08-12-1.71-18-2.45-2.3-.28-3.39-1.74-2.5-3.89a9.82,9.82,0,0,1,1.94-3,29.34,29.34,0,0,1,9.69-6.23,76.39,76.39,0,0,1,19.35-5.55,11.81,11.81,0,0,1,1.86.09c-2.68,3-6.48,4.64-7.19,8.8a2.72,2.72,0,0,0,1.31-.49c.87-.7,1.64-1.53,2.55-2.17,2.87-2,5.72-4.06,8.69-5.91a6.34,6.34,0,0,0,3-4.88A16.2,16.2,0,0,0,276,28.5c-.2-1.93-1-2.83-2.91-3.08a31.33,31.33,0,0,0-5.47-.26,66.29,66.29,0,0,0-18.78,4,49.44,49.44,0,0,0-15.52,8.55,15,15,0,0,0-4.25,5.55A25.23,25.23,0,0,0,227.66,57a4.43,4.43,0,0,0,2.77,3.55,43.48,43.48,0,0,0,14.68,3c5,.11,10.06-.09,14.87,1.8a13,13,0,0,1,5.68,3.92c-4.39,5.23-10.14,8.06-16.5,9.7-4.74,1.23-9.55,2.2-14.37,3.11a56.16,56.16,0,0,1-6.89.6,5.08,5.08,0,0,1-1.33-.3v-.35Zm46.16-37.65c-2.4,1.59-4.63,3-6.78,4.51s-4,3.3-6.26,4.56-6.58.21-7.63-2.67c-.35-1-.61-1.94-.92-3A42.15,42.15,0,0,0,244,50.28c4.15.64,8.29,1.06,12.33,1.92,7,1.5,13.78,3.58,18.82,9.43l2.65-4.12c-4.23-2.37-4.76-6.14-3.69-9.56C274.66,46.07,275.33,44.22,276.07,42.05Zm-44,32.26a6.84,6.84,0,0,1,1.48,1.18,1.63,1.63,0,0,0,2,.67c5.22-1.28,10.47-2.46,15.67-3.84a29.81,29.81,0,0,0,4.59-2.07,2.29,2.29,0,0,0-1.24-.55c-2.63-.15-5.27-.2-7.89-.41-3.21-.25-6.41-.63-9.62-.92a1.26,1.26,0,0,0-1,.31C234.71,70.51,233.43,72.39,232.09,74.31ZM421.92,48.14c0-1.62-.48-2.65-1.29-3a2.69,2.69,0,0,0-2.87.67,4.74,4.74,0,0,0-1.36,1.78c-.76,1.87-1.43,3.79-2,5.71a2.89,2.89,0,0,0,1,3.32c.89.54,2.11.24,3.21-.89A12.34,12.34,0,0,0,421.92,48.14Zm17.31-9.5c-1.22-.06-2.34-.46-2.93-.07a18.7,18.7,0,0,0-2.9,3l.27.29C435.79,41.5,437.36,40.18,439.23,38.64ZM42.41,63.26l-.31-.18L37.6,69l.22.24c.6-.17,1.49-.16,1.73-.55C40.6,66.92,41.47,65.07,42.41,63.26ZM295.53,61l.16.16c.84-.92,1.67-1.85,2.47-2.75l-1.05-2.13C296.54,58,296,59.48,295.53,61Z"/><path class="cls-2" d="M77.19,77c-.71,2.43-1.41,4.57-2,6.75a14.18,14.18,0,0,0,.87,10.35,1,1,0,0,1,0,.92,41.33,41.33,0,0,1-3.54,3.21,5.87,5.87,0,0,1-4.13,1.25c-1.61-.11-3-1-3-2.66-.06-4.05,0-8.15,3-11.36,2.23-2.39,4.62-4.62,7-6.91C75.91,78,76.47,77.6,77.19,77Z"/><path class="cls-2" d="M183.28,58.52c-.35,1-.74,2.08-1,3.14-1,3.44-2.07,6.9-1.18,10.54.26,1.07.81,2.07,1.15,3.12a1.15,1.15,0,0,1-.13,1,49.53,49.53,0,0,1-3.74,3.36,5.82,5.82,0,0,1-4.55,1,2.51,2.51,0,0,1-2.24-2.46c0-3.3-.32-6.7,1.78-9.68A47.73,47.73,0,0,1,183.28,58.52Z"/><path class="cls-2" d="M137.93,84.29c2.5-5.56,5.19-10.56,9.17-14.74a11.37,11.37,0,0,1,3-2.06c1.38-.71,2.58,0,2.54,1.51a9.28,9.28,0,0,1-.78,3.81c-1.73,3.48-3.66,6.87-5.54,10.28a1.15,1.15,0,0,1-.91.5C143,82.82,140.58,83.26,137.93,84.29Z"/><path class="cls-2" d="M349.08,40.73c-.73,3-1.52,5.89-2.12,8.8A11.37,11.37,0,0,0,348,57.41a1.18,1.18,0,0,1-.29,1.74c-1.22,1-2.37,2.12-3.61,3.12a5.48,5.48,0,0,1-4.22.88,2.4,2.4,0,0,1-2.28-2.36,38.31,38.31,0,0,1,.26-6.43c.38-2.68,2.18-4.67,4-6.53C344.18,45.38,346.67,43.08,349.08,40.73Z"/><path class="cls-2" d="M468.36,20c-1.74,5.74-4.17,11.46-.66,17.56a31.49,31.49,0,0,1-4.6,3.79,8.45,8.45,0,0,1-4.24.74,2.14,2.14,0,0,1-2.07-2.24,58.89,58.89,0,0,1,.13-6.09,9.13,9.13,0,0,1,2.69-5.25c2.72-3,5.62-5.83,8.44-8.72Z"/></g></g></svg>