<svg xmlns="http://www.w3.org/2000/svg" viewBox="0 0 633.15 106.91"><defs><style>.cls-1{fill:#ff9000;}.cls-2{fill:#231f20;}</style></defs><g id="Layer_2" data-name="Layer 2"><g id="FOOTER"><path class="cls-1" d="M166.7,43.36c-2.81,3.58-5.66,7.12-8.42,10.75A143.11,143.11,0,0,1,140,73.59,37.79,37.79,0,0,1,134,78c-2.35,1.38-5.3.91-6.4-1.15a8,8,0,0,1-.84-4.89,67.62,67.62,0,0,1,2.73-8.68c.58-1.69,1.29-3.33,1.76-5.09-1.8,2.5-3.48,5.09-5.42,7.48-2.76,3.39-5.55,6.78-8.61,9.9-3.26,3.32-7.1,1.64-9-1.7A38.81,38.81,0,0,1,106,67.76a17.78,17.78,0,0,1-.39-1.76c-1,.83-1.87,1.54-2.72,2.28A10,10,0,0,1,95.71,71,2.78,2.78,0,0,0,93.5,72a70.76,70.76,0,0,1-6.7,6.15,8.93,8.93,0,0,1-12.44-1.92,21.73,21.73,0,0,1-4-8.64c-.34.34-.65.62-.92.94A154.45,154.45,0,0,1,51,87.23c-5.42,4.49-11.22,8.47-18.12,10.39-5.79,1.62-11.58,1.82-17.16-.86-4.12-2-6.56-5.5-7.94-9.7a30.74,30.74,0,0,1-.63-15.45c1.7-9.18,6-17.21,11.08-24.85A140.74,140.74,0,0,1,38.87,22,67,67,0,0,1,56.68,9.5a37.12,37.12,0,0,1,7.19-2.43c6.21-1.4,9.78,2,10.91,7.81,1,5.09-.45,9.79-2.46,14.37C68.66,37.59,63.11,44.64,57,51.32A58.69,58.69,0,0,1,44.34,62.38a5.17,5.17,0,0,1-6.47-.53c-1.44-1.41-1.39-3-1-4.73A17.77,17.77,0,0,1,41,49.68c2.76-3.32,5.77-6.44,8.72-9.61A8.42,8.42,0,0,1,51.32,39l.4.31-1,3.15.24.34a22.74,22.74,0,0,0,2.64-2.1,70.78,70.78,0,0,0,10.83-15c1.47-2.71,2.81-5.48,2.8-8.72,0-3-1.7-4.38-4.43-3.2A31.93,31.93,0,0,0,56.6,17.3,98,98,0,0,0,38.83,34.89,115.67,115.67,0,0,0,26.28,53.43c-3.08,5.8-5.91,11.72-6.54,18.39-.4,4.14-.13,8.23,2.09,11.91a9.32,9.32,0,0,0,6.48,4.5,19.93,19.93,0,0,0,10.35-1c5.87-2,10.92-5.34,15.79-9a138.42,138.42,0,0,0,15.1-13.84,2.32,2.32,0,0,0,.65-1.17c.85-5.37,3.78-9.66,7.19-13.66a32.76,32.76,0,0,1,8-6.8c2.94-1.77,6-3.07,9.51-2.83a7.61,7.61,0,0,1,1,.07c2.69.51,4.63,2,2.46,5.11,0,.07,0,.19.11.22,3.23,1.5,3.93,2.91,3.47,6.83a32.65,32.65,0,0,1-4.09,12.52,2.15,2.15,0,0,0,3.19.63c1.51-.89,2.9-2,4.32-3a1.21,1.21,0,0,0,.46-.66c.94-5,4-8.83,7-12.71,1.52-2,3.13-3.88,4.63-5.87a5.24,5.24,0,0,1,4.2-2.33,29,29,0,0,1,4.66.22c1.76.26,2.09,1,1.33,2.61a29.88,29.88,0,0,1-6.2,8.61c-2.37,2.38-4.95,4.55-7.32,6.93-1.53,1.52-1.51,3.62-1.4,5.58.11,2.19,1.65,2.81,3.36,1.33,6.81-5.88,13.68-11.66,18.83-19.23,2.21-3.25,5.19-6,7.89-8.9a4.86,4.86,0,0,1,2.15-1.14c1.56-.46,2.58.33,2.81,1.92a9.78,9.78,0,0,1-1.63,7.07c-2.94,4.47-5.76,9-8.41,13.66a14.59,14.59,0,0,0-1.58,5.36c-.3,2.47.92,3.3,3.64,2.59a14.72,14.72,0,0,0,3.84-2.13c5.91-3.75,9.94-9.33,14-14.78,4.68-6.24,9-12.75,13.61-19,2-2.7,4.08-5.43,7.56-6.41a15.65,15.65,0,0,1,3.25-.54c1.59-.07,2.3,1.34,1.4,3a22.57,22.57,0,0,1-3.26,4.95c-5.79,6-9.5,13.23-13.17,20.53a5.34,5.34,0,0,0-.21.87c1.85-1.55,3.47-2.87,5.06-4.24,3.7-3.19,7.12-6.77,11.59-8.92A21.43,21.43,0,0,1,188.82,39c1.64-.3,2.37.47,2.46,2.16.25,4.38-1.22,8.22-3.51,11.88-3.36,5.38-7.84,9.78-12.14,14.36l-.55.58a10.46,10.46,0,0,0,7.42-.26c4.58-1.83,8.33-4.9,11.83-8.28A3.42,3.42,0,0,0,194.9,58a26.86,26.86,0,0,1,4-8.76c3.51-4.9,7.57-9.17,13.09-11.84a15.51,15.51,0,0,1,7.87-1.73,6.12,6.12,0,0,1,1.36.2C224,36.7,224.4,38,222.88,41a3.66,3.66,0,0,0,.61.27c2.22.53,2.88,2,2.93,4.27a27.9,27.9,0,0,1-3.63,14c-.15.28-.28.57-.42.85a2.09,2.09,0,0,0,3.06.65A51.9,51.9,0,0,0,230,57.91a1.55,1.55,0,0,0,.37-.71,49,49,0,0,1,9.41-15.06,7.15,7.15,0,0,1,5.92-2.81c1.24.08,2.48.42,2.84,1.55a3.63,3.63,0,0,1-.61,2.77c-2.52,3.47-5.24,6.8-7.79,10.25a21.51,21.51,0,0,0-2,3.75,2.72,2.72,0,0,0-.11,1.6c.26,1.1,1,1.35,1.82.53q2.1-2.2,4-4.58a97.77,97.77,0,0,1,13.39-14,77.57,77.57,0,0,1,8.05-5.6c1.42-.9,2.23-.64,2.85.91a18.47,18.47,0,0,1,1.47,5.55c.07,1.11-.77,2.41-1.48,3.42-2.73,3.89-5.7,7.61-8.3,11.57A11.4,11.4,0,0,0,258.4,62c-.14,1.36.67,2,2.05,1.68a11.87,11.87,0,0,0,3.64-1.52c2.83-1.74,5.57-3.62,8.1-5.28a4.52,4.52,0,0,1-1.39,4.46c-3.51,3.18-6.7,6.73-10.21,9.92a17.31,17.31,0,0,1-5.28,3.18c-3,1.14-5.11-.27-5.83-3.38-.78-3.41.24-6.49,1.75-9.44,2.05-4,4.24-8,6.36-12a3,3,0,0,0,.15-.51l-.28-.28c-1.74,1.51-3.54,3-5.21,4.55a84.06,84.06,0,0,0-10.69,13c-1.26,1.82-2.6,3.59-4,5.27a2.47,2.47,0,0,1-4.28-.23A17.93,17.93,0,0,1,230.41,63c0-.36-.07-.72-.13-1.31-1,.82-1.9,1.49-2.72,2.25a9.87,9.87,0,0,1-7.42,2.8,2.14,2.14,0,0,0-2,.93c-2.54,3.16-5.38,6-9.22,7.57a9.1,9.1,0,0,1-9.07-2.12A18.69,18.69,0,0,1,195,63.24c-.74.65-1.41,1.22-2.06,1.8-2.72,2.43-5.32,5-8.18,7.24a40,40,0,0,1-6.57,4c-3.84,2-7.66.84-11.38-.56a8.73,8.73,0,0,0-4.13-.59c-1.57.16-3.21-.43-5.13-.74-.33.75-.86,1.85-1.29,3-1.57,4.18-3.07,8.39-4.67,12.57-1.27,3.32-2.62,6.62-5.23,9.17-1.53,1.48-2.89,1.1-3.43-.93-.93-3.56-.12-7,1-10.34,1.48-4.54,4-8.59,6.42-12.67,2.72-4.55,5.45-9.1,7.9-13.79,2.95-5.63,5.61-11.42,8.39-17.14a4.81,4.81,0,0,0,.26-.84ZM94,47.85c-.93.59-1.64,1-2.3,1.48-3,2.24-6.14,4.41-9.08,6.78-4,3.2-4.73,7.88-5.31,12.53-.24,1.85,1.15,3.14,3,3.52a6.78,6.78,0,0,0,4.93-.75,47.22,47.22,0,0,0,4.57-3.12,1.19,1.19,0,0,0,.17-1.05,16.4,16.4,0,0,1,.67-12C91.61,52.85,92.75,50.5,94,47.85Zm124.5-4a55.22,55.22,0,0,0-13,9.85c-2.89,3.08-3,7-3.61,10.81A2.91,2.91,0,0,0,204,67.73a6.7,6.7,0,0,0,5.37-.43,55.47,55.47,0,0,0,4.82-3.23,1.35,1.35,0,0,0,.32-1.11c-.23-1.27-.69-2.5-.82-3.77-.43-4.31,1.36-8.1,3.06-11.88C217.29,46.15,217.9,45,218.47,43.89ZM162.36,66.05c3.2-.74,6-.87,8.7.42a1.31,1.31,0,0,0,1.12-.43c2.71-3.59,5.47-7.16,8-10.88a10.73,10.73,0,0,0,1.51-4.23c.3-1.76-1-2.73-2.66-2.14a13.2,13.2,0,0,0-3.8,1.87C170,54.8,166.12,60.1,162.36,66.05Z"/><path class="cls-1" d="M486.08,62c.55,2.41.31,4.22-1.63,5.81-4.27,3.5-8.29,7.32-12.6,10.78a13.59,13.59,0,0,1-5,2.15c-2.28.59-4-1.17-4.45-3.33a7.79,7.79,0,0,1,.62-5.26q4-7.95,8.1-15.87a2.51,2.51,0,0,0,.37-1.12c-.72.58-1.47,1.12-2.14,1.74A190.48,190.48,0,0,0,450.91,77a11.32,11.32,0,0,1-3.19,2.61c-2.53,1.43-4.68.1-4.93-2.8a9.85,9.85,0,0,1,1.29-5.14c1.82-3.83,3.8-7.59,5.69-11.38a6.93,6.93,0,0,0,.76-1.91,2.21,2.21,0,0,0-.32-1.62c-.19-.22-1.13-.08-1.49.2a26.08,26.08,0,0,0-3.55,3.25c-3.42,4-6.79,8-10.06,12.16a62.93,62.93,0,0,0-3.92,5.86c-1.37,2.17-3.68,2.39-5.31,0a18.18,18.18,0,0,1-3-8.65,22.54,22.54,0,0,0-3.22,1.84,9.65,9.65,0,0,1-6.56,2.12,2.29,2.29,0,0,0-2.1,1,24.14,24.14,0,0,1-8.2,7.1,8.84,8.84,0,0,1-10-1.74,17.07,17.07,0,0,1-4.77-9.16c0-.21-.13-.42-.21-.71-2.71,2.8-5.24,5.68-8.06,8.25-2.16,2-4.31,4-7.34,4.76a4.79,4.79,0,0,1-5.3-2.28,11.83,11.83,0,0,1-.78-9.89,41.64,41.64,0,0,1,7-12.66c.53-.67,1-1.38,1.75-2.4a71.55,71.55,0,0,1-7.35,1.63c-2.56.29-3.93,1.53-5.06,3.82-1.92,3.87-5,6.89-8,10-4.31,4.63-8.52,9.37-13.76,13A13.54,13.54,0,0,1,334.72,87a5.73,5.73,0,0,1-6.18-5c-.63-4,.93-7.53,2-11.19.32-1.1.74-2.17,1.24-3.59l-4.87,4.61c-.25-2-.47-3.57,1.18-5.22,4.3-4.28,7.65-9.35,10.9-14.45l1.18-1.83-10.58,1.15a13.64,13.64,0,0,1,.8-2.68c1.19-2.23,2.42-4.46,3.81-6.57a7.46,7.46,0,0,1,5.45-3.2,44.39,44.39,0,0,1,6.59-.62c1.53,0,2.08-.71,2.68-1.83,1.32-2.48,2.7-5,5-6.67a7.36,7.36,0,0,1,5.33-1.52c2,.23,2.61,1,1.43,2.68-1.42,2.05-2.85,4.08-4.28,6.13-.2.29-.37.6-.6,1l5.53.78c-1,1.69-1.78,3.31-2.74,4.85-1.37,2.19-2.82,4.33-4.31,6.44a1.86,1.86,0,0,1-1.32.66c-1.88,0-3.77-.08-5.66-.06a1.54,1.54,0,0,0-1.18.54c-2.44,5-5,10-7.14,15.1a12,12,0,0,0-.64,7.34A2.46,2.46,0,0,0,341.2,76c2.36-.07,4.19-1.42,5.95-2.72a71.75,71.75,0,0,0,7.69-6.32,44.52,44.52,0,0,0,4.24-5.67c-3.72-1.26-4.21-3.63-3.14-6.63a23.92,23.92,0,0,1,8.23-11.38,6.94,6.94,0,0,1,2.13-1c1-.31,1.69.23,1.44,1.29a30,30,0,0,1-1.29,3.46c2.11-.37,4.13-.75,6.16-1.08,2.46-.4,4.91-.84,7.38-1.11,2.19-.25,2.84.33,3.67,2.31,1.17,2.78,1,5.27-1.1,7.56-1.26,1.35-2.41,2.8-3.57,4.24a26.12,26.12,0,0,0-5.09,9.73c-.85,3.32,1.19,4.42,4,3.63,2-.58,3.81-2,5.67-3.08a10.89,10.89,0,0,0,5.14-6.86c1.7-5.8,5.61-10.31,10.15-14.21a22.21,22.21,0,0,1,9.72-5.33,15.17,15.17,0,0,1,5.2-.23c3,.45,3.73,2.42,2.09,5.05.09.08.16.2.27.25,2.73,1.09,3.66,2.54,3.36,5.52a34.27,34.27,0,0,1-3.65,13c-.57,1,0,2,1.23,1.74a9.31,9.31,0,0,0,3.13-1.33,8.57,8.57,0,0,0,3.58-4,49.7,49.7,0,0,1,8.9-14.25c1.82-2.06,4-3.24,6.86-2.48,2.2.59,2.8,2.18,1.41,4-2.32,3-4.89,5.88-7.17,8.94a33.69,33.69,0,0,0-3,5.36c-.23.46.1,1.19.17,1.79.63-.11,1.48,0,1.86-.37,2.63-2.58,5.15-5.29,7.74-7.92,3.72-3.77,7.39-7.61,11.26-11.23a23.52,23.52,0,0,1,5.2-3.36,3.68,3.68,0,0,1,4.5.5,4,4,0,0,1,1.13,4.66A56.2,56.2,0,0,1,458.85,56c-2.69,4.41-5.61,8.67-8.43,13a1.15,1.15,0,0,0-.25.82l8.41-8q8.82-8.51,17.64-17c1.81-1.73,2.92-1.56,4.13.59.42.76.78,1.56,1.15,2.35,1.39,2.93-.5,4.85-2.1,6.89-2.08,2.64-4.15,5.3-6.15,8a5.48,5.48,0,0,0-1,4.58,3.15,3.15,0,0,0,4.63,2.21A39.08,39.08,0,0,0,482,65.75C483.39,64.63,484.64,63.34,486.08,62ZM411.27,50.35c-3.15,2.31-6.36,4.54-9.44,7-2.35,1.85-4.73,3.84-5.6,6.84a45.14,45.14,0,0,0-1.34,7.32,2.79,2.79,0,0,0,2.24,3.08,6.28,6.28,0,0,0,5-.33c1.58-1,3.07-2,4.64-3a1.37,1.37,0,0,0,.62-2,13,13,0,0,1,.06-9.19C408.57,56.85,409.94,53.69,411.27,50.35Z"/><path class="cls-1" d="M513.92,51.69c-1.76,1.28-3.23,2.22-4.56,3.33A71.55,71.55,0,0,0,502.65,61c-3.17,3.41-1.28,9.31,3.23,10.56a9.11,9.11,0,0,0,6.38-.3,39.64,39.64,0,0,0,5.8-2.88c3.11-2.06,6.05-4.39,9-6.63a1.41,1.41,0,0,0,.48-.79,28.78,28.78,0,0,1,6.84-13.24A33.72,33.72,0,0,1,545.47,39a13.36,13.36,0,0,1,8.09-1.22c3,.5,3.75,2.21,2.27,4.84l-.18.36c3.06,1.08,4.08,2.77,3.71,6.11a33.48,33.48,0,0,1-3.75,12.66c-.61,1.1.29,1.54.91,1.43a11.56,11.56,0,0,0,3.66-1.28A9.37,9.37,0,0,0,564.12,57a42.58,42.58,0,0,1,9.62-14.25,5.48,5.48,0,0,1,5.87-1.37c1.93.66,2.49,2.17,1.31,3.82-1.68,2.35-3.61,4.53-5.35,6.85q-2.39,3.2-4.59,6.52c-.58.88-1.08,2.17-.16,2.92,1.12.9,2-.42,2.64-1.09,3.11-3.15,6-6.51,9.16-9.63,3.62-3.61,7.37-7.1,11.17-10.53a10.7,10.7,0,0,1,3.48-1.9,3.62,3.62,0,0,1,4.23.8,4.25,4.25,0,0,1,.89,4.89c-1.95,3.86-4,7.69-6.2,11.4-1.88,3.17-4.05,6.16-5.93,9.4,1.63-1.54,3.27-3.06,4.88-4.62q10.43-10,20.85-20.07c2.11-2,3.21-1.85,4.43.83,2.28,5,2,4.71-1.06,8.77-2.1,2.76-4.3,5.43-6.26,8.28a7.28,7.28,0,0,0-1.05,3.51,3.17,3.17,0,0,0,4.73,3.08,54.59,54.59,0,0,0,6.27-4.71c1-.8,1.89-1.74,3-2.74.29,2.17.57,4-1.37,5.57-4.34,3.57-8.44,7.42-12.77,11a14.16,14.16,0,0,1-4.33,2.1,3.88,3.88,0,0,1-5.14-3.18,10,10,0,0,1,.46-5c1.59-3.82,3.52-7.5,5.39-11.19,1-2,2.12-3.86,3-6-1.73,1.59-3.47,3.16-5.19,4.76-5.53,5.14-10.27,11-15,16.79a8.5,8.5,0,0,1-4.6,3.14c-1.41.34-2.74-.09-3.14-1.46s-.72-2.86-.25-4c2-4.73,4.35-9.33,6.55-14a12.89,12.89,0,0,0,1-2.43,1.5,1.5,0,0,0-.35-1.32,1.42,1.42,0,0,0-1.37,0,35,35,0,0,0-4.17,3.8c-4.86,5.56-9.66,11.17-13.56,17.49-1.49,2.4-3.29,2.36-5.09.19-2.08-2.5-2.63-5.53-3.11-8.59,0-.23-.06-.46-.1-.68,0,0-.07-.06.16.16-1.31.84-2.65,1.55-3.83,2.47-1.91,1.48-4.12,1.7-6.39,1.87a2.46,2.46,0,0,0-1.57.73,30.64,30.64,0,0,1-7.67,6.91,9,9,0,0,1-10.63-1.31c-2.84-2.65-4.07-6.05-5-9.9-1.27,1.28-2.46,2.47-3.63,3.69a60.59,60.59,0,0,1-11.06,9.61c-3.15,2-6.55,3.35-10.34,1.72a11.2,11.2,0,0,1-5.09-4.91,22,22,0,0,1-3-13.28,14.29,14.29,0,0,1,3.72-7.89c4.82-5.71,10.1-10.89,16.55-14.75,1.74-1,3.66-1.93,5.76-1.51a4.49,4.49,0,0,1,3.74,5.86A22.81,22.81,0,0,1,517,55.35a2.5,2.5,0,0,1-1.38.51c-1,.08-1.57-.35-1.52-1.46A26.93,26.93,0,0,0,513.92,51.69Zm37.34-5.83-.32-.29c-3.7,2.86-7.48,5.64-11.08,8.62a10.59,10.59,0,0,0-3.93,5.58,68.16,68.16,0,0,0-1.13,7,2.47,2.47,0,0,0,2,2.9,10,10,0,0,0,5-.16c2.1-.83,3.93-2.36,5.88-3.61C544.62,58.31,548.34,52.16,551.26,45.86Z"/><path class="cls-1" d="M268.45,75.69l-4.18,2.16-.07.39a5.11,5.11,0,0,0,1.47.56,67,67,0,0,0,8,.44c5.66-.26,11.33-.61,17-1.24,7.55-.85,14.6-3.16,20.47-8.44a14.92,14.92,0,0,0-5.87-5.41c-5.2-2.94-11-3.53-16.74-4.47a50.26,50.26,0,0,1-16.32-5.85,5.14,5.14,0,0,1-2.61-4.51A29.29,29.29,0,0,1,273.4,33.8a17.34,17.34,0,0,1,5.77-5.66,57.11,57.11,0,0,1,19.17-7.28,76.62,76.62,0,0,1,22.15-1.53,34,34,0,0,1,6.22,1.19c2.15.58,2.92,1.75,2.84,4a18.81,18.81,0,0,1-.54,4.37A7.37,7.37,0,0,1,324.73,34c-3.7,1.64-7.3,3.52-10.91,5.37-1.14.59-2.17,1.41-3.28,2.07a3.06,3.06,0,0,1-1.57.35c1.49-4.65,6.09-5.89,9.66-8.91a12.74,12.74,0,0,0-2.11-.41,88.22,88.22,0,0,0-23.07,3.22,34,34,0,0,0-12.11,5.57,11.14,11.14,0,0,0-2.7,3.1c-1.37,2.32-.36,4.17,2.22,4.86,6.77,1.82,13.58,3.51,20.22,5.72a56.93,56.93,0,0,1,10.66,5.16c3.63,2.12,6.32,5.23,6.57,9.66A15,15,0,0,1,314.84,80c-3.88,5-9.18,7.55-15,9.29a95.23,95.23,0,0,1-25.63,3.88,45.55,45.55,0,0,1-13.84-1.6c-2.39-.71-4.81-1.74-5.2-4.67a6.39,6.39,0,0,1,.59-3.2c1.2-2.74,2.4-5.52,5.23-7.07a11.76,11.76,0,0,1,6.51-1.47C267.65,75.19,267.83,75.37,268.45,75.69Z"/><path class="cls-1" d="M493.5,70.64a14.28,14.28,0,0,1-5.12,8.13c-1.45,1.11-2.88,1.25-3.82.5a3.34,3.34,0,0,1-.56-4c1-2.11,2.09-4.19,3.27-6.21a5.29,5.29,0,0,1,1.85-1.82,3.09,3.09,0,0,1,3.39-.31C493.38,67.51,493.79,68.78,493.5,70.64Z"/><path class="cls-2" d="M525.65,77.07c-8.2,8.08-21.68,16-31.11,5.24-4.33,4.79-12.36,6-16.25-.22-5.86,6.23-17.66,8.23-21.65-1-5.53,6.17-14.54,8.51-19.72.65-4,7.52-15.25,5.47-18-2.15-3.48-.34-5.3,2.09-7.4,4-7.16,7.63-19.75,7.13-25.74-1.63-9.21,10.7-25.44,11.17-26.58-5.58-9,11.47-32.19,29.61-37.3,5.34-7.17,18.5-82.59,30.18-72.53-.86a11.27,11.27,0,0,1-5.54-6c-6.2,7.41-14.19,5.36-17.65-2.32-2.09.43-4.15.6-5.81,2.49-7.11,9.13-21.2,9.81-27.81-.22-9.94,8.6-18.09,11.16-30.84,6.92-3,7.45-4.57,15.18-9.85,21.26-14.36,12.56-19.39-8.38-13.42-19.65-7,3.2-13.21,2.1-16.53-2.87-7.42,6.17-15.26,3.44-19.85-3.74-2,.46-4.25.31-5.64,2-7.34,8.92-20.57,10.72-28,1C55.28,93.91,36.82,110.45,16,104.05-4.72,97-2.4,69.32,6.61,53.68c8.24-19,57.66-78.29,74.17-42.32C90.31,28.7,41.69,93.52,30.16,60.74c-16,38.17,20.75,15.29,32.93.86C67.3,50.9,73.9,40.48,84.84,35.52c10.59-4.87,19.27-2.49,22.69,9.23,5.77-9.55,16.56-15.15,26.13-7,7.87-11.53,22.78-10.18,20.78,5.95C159.25,37,164,30.23,169,23.75c7.19-10,27.37-7.1,19.83,8.11,4.07,1.36,8.66,2.67,9,7.88,9.29-10.42,30.41-18.13,34.12,1.13,4.92-6.57,13.36-11.79,21.24-5.17,4.77-3.79,9.72-7.35,15.91-7.38,3.69-4.78,8.84-7.45,14.21-9.75,15.5-6.13,61.83-15.66,51.55,14.64,12.2-1,7.85-2.85,15.9-9.17,7.79-5.8,22.19-.08,15.64,10.58,2.19,1.43,4.81,1.67,6.46,3.85,8,.6,15.06-2.57,17.71,8.35,9.81-10.89,29.4-18.37,34.55.59,4.68-7.5,13.63-10.82,21.11-5.2,6.5-5.75,17.86-9.68,22.54.48,9.93-12.91,22.85-.86,19.06,11.65l1.93.74c7.36-12.26,33.09-37.67,41.53-14.14,9.69-9.79,29.86-16.75,33.49,1.91,4.69-7.22,14.13-11.67,21.28-5.21,7.12-6.46,17.24-9.48,22.77,0,9.82-12.52,22.73-.72,18.88,12,9.39,3.82,5.14,17.21-2,21.31-7.31,7.3-22.42,19.06-29,5.44-5.36,5.31-15.31,9-19.33.55-5.14,6.29-14.42,6.7-18-1.35-.43-.73-.84-.87-1.75-.76-5.15,1-7.49,6.8-12.67,8.3C537.92,86.21,529.93,83.08,525.65,77.07ZM166.7,43.36l.17.09c-5,16.42-26.57,40.18-24,54.77,5.32,8.38,12.29-20.47,14.62-23.8C180,78.84,177.67,78.67,195,63.24c2.74,14.72,15.13,16,23.17,4.38a2.14,2.14,0,0,1,2-.93c4.28.38,7.05-2.49,10.14-5,.82,9.66,4.84,16.36,11.28,4.83a76.7,76.7,0,0,1,15.9-17.58l.28.28c-2.74,7.2-9.66,13.68-8.26,21.91,4.65,11.3,16.38-6.15,21.32-9.72a4.52,4.52,0,0,0,1.39-4.46c-4.33,3-18.16,13.2-12.41.18,3.42-6.6,13-12.44,8.32-20.54C264.79,31,246.58,51.63,243.81,55.2c-1.45,1.07-4.36,7.13-5.84,4-1.49-5.52,17.43-18,7.7-19.92-8.24,1.05-12,11.24-15.33,17.87-1.5,1.72-5.86,6.08-8,3.22,2.39-5.19,8-16.59.51-19.43,3.83-7.26-7.39-5.7-10.9-3.6A33.86,33.86,0,0,0,194.9,58c-3.76,6-12.32,12.13-19.82,10,23.3-21.87,22.75-44.2-8.3-14.26a71.89,71.89,0,0,1,13.38-21.4c1.43-1.71,6.11-7.41,1.86-7.93-13.44.65-24.18,33.26-38.46,40.76-7.11,5.4-9.38.81-5.9-5.82,2.93-7,10.58-12.81,10-20.73-2.45-6.85-10.65,5.76-12.85,8.12C129.7,54.33,122.83,60.11,116,66c-1.71,1.48-3.25.86-3.36-1.33-.53-8.7,12.42-12.53,14.92-21.12,1.81-3.65-4-2.63-6-2.83-4.35.3-6,5.44-8.83,8.2-3,3.88-6.06,7.7-7,12.71-1.84,1.65-5.61,5.92-8,3,2.63-5.52,7.86-16.11.51-19.57,2.5-3.5-.51-5.08-3.42-5.18C82,40.36,72.8,53,69.55,64.36,58.34,75.06,45.23,89.8,28.31,88.23c-14.92-4.81-7.63-25.05-2-34.8,9-15.41,20.41-31.24,36.54-39.69,13.56-1.5-6.88,26.72-11.84,29l-.24-.34,1-3.15-.4-.31c-5.62,5-12,10.79-14.47,18.14-1.56,4.38,3.76,7.88,7.49,5.26a85.09,85.09,0,0,0,28-33.13C84.24-4.54,53.44,6.62,38.87,22,22.63,39,1.78,61.7,7.79,87.06c2.86,10.76,15.57,13.73,25.1,10.56,15.79-4.9,26.71-18.26,37.5-30C73.73,82.36,84.78,83.26,93.5,72A2.78,2.78,0,0,1,95.71,71c4.14.3,6.94-2.42,9.91-5,5,24.75,18.31,1.84,25.62-7.86C129.41,63.79,120.88,82,134,78,147.47,69.24,156.82,55.72,166.7,43.36ZM486.08,62a49.3,49.3,0,0,1-9.21,7.42c-4.17,2.09-6.17-4.09-3.62-6.79,2.42-4.86,10-9,8.25-14.89-1-2.35-2.57-6-5.28-2.94-8.69,8.34-17.32,16.73-26.05,25,1.83-5.41,22.51-28.2,6.78-26.52-10.54,5-16.15,17.82-26.06,22.88-.05-6.39,6.79-11,10.05-16.09,1.39-1.82.79-3.41-1.41-4-8.54-1-12.38,10.57-15.76,16.73-.33,2.43-8.64,8.31-7.94,3.58,2.14-5.4,7.31-15.57,0-18.75,4.2-9.93-14.23-3.54-17,.51-10.74,7.36-8.06,20.09-21,24.15C369.29,73.92,376.37,62,379,59c2.74-3.52,7.23-6.93,4.67-11.8-.83-2-1.48-2.56-3.67-2.31-4.57.56-9,1.39-13.54,2.19,6.48-15.57-20.56,11.24-7.37,14.21-19.29,24.62-28.58,16.44-12.94-9.93,1.82-1.28,4.68-.16,6.84-.49,4-2.48,5.74-8,8.37-12l-5.53-.78c.73-2.55,8.91-9.07,3.45-9.77a7.36,7.36,0,0,0-5.33,1.52c-3.72,1.87-3.66,7.76-7.71,8.5C337,37.45,331.74,43,329.58,51.43l10.58-1.15c-3.74,5.81-7.2,11.42-12.08,16.28-1.65,1.65-1.43,3.19-1.18,5.22l4.87-4.61c-11.43,30.89,10.92,19.86,23,4.07,10-9.26,5-13.37,20.39-15.49C357.59,76.3,366.56,96.8,387.88,70c2.39,14.26,15.4,16.23,23.16,4.51a2.29,2.29,0,0,1,2.1-1c3.76.44,6.69-2.49,9.78-4-.06,3.34,3.74,14.57,8.27,8.67A107.3,107.3,0,0,1,448.72,57c6.51-1.8-7.62,16.37-5.93,19.85.43,5.39,6,3.15,8.12.19,6.39-7.68,12.82-15.46,20.58-21.82-2.28,7.51-9.62,14.15-9.09,22.25.88,5,6.58,3.38,9.45,1.18C475.87,73.9,487.79,68.77,486.08,62Zm27.84-10.32c-.64,14,18.5-12.66,6.78-13.76-8.61,0-24.73,15.7-26,24.14-.48,6.71,1.71,14.9,8.08,18.2,10.71,3.12,18-8.89,25-15,2.6,14.62,15.39,15.87,23.31,4.3a2.46,2.46,0,0,1,1.57-.73c4,.18,7-2.3,10.22-4.34-.54,2.59,3.57,15.26,8.14,8.92,5.1-7.69,10.69-15.28,17.73-21.29,5.57-1.79-5.61,15.25-5.78,17.69-1.54,6.7,4.72,6.83,8,2.28a159.34,159.34,0,0,1,20.24-21.55c-2.7,7.41-9.22,14-8.81,22.15,4.48,10.56,17-6.94,22.24-9.92,1.94-1.6,1.66-3.4,1.37-5.57a55.48,55.48,0,0,1-9.23,7.45c-4.29,2.15-5.95-3.75-3.68-6.59,2-2.85,4.16-5.52,6.26-8.28,3.09-4.06,3.34-3.73,1.06-8.77-1.22-2.68-2.32-2.85-4.43-.83-8.6,8.21-17.07,16.55-25.73,24.69,2.21-5.17,21.45-27.76,7-26.5-9.42,5.25-16.11,14.63-23.81,22.07-1.67,2.71-4.4.73-2.48-1.83,1.13-4,15-15.15,8.63-17.19-12.15-2.26-12.65,20.9-23.09,21.81-.62.11-1.52-.33-.91-1.43,2.17-5.21,7.6-16,0-18.77,4-6.56-6.66-6.09-10.18-4a33.72,33.72,0,0,0-11.05,8.64C524.23,60.68,532,62,512.26,71.22,505.87,74.6,497.39,67,502.65,61A76.62,76.62,0,0,1,513.92,51.69Zm-245.47,24c-6.65-2.62-13.27,4.92-13.33,11.22,2.43,7.15,12.92,5.72,19,6.27,14-.91,30.84-1.79,40.68-13.17,5.34-6.14,4.53-16.22-3.1-19.93-9.37-5.95-20.35-7.93-30.88-10.88-4.89-1.11-2.3-6,.48-8C292,34.19,306.07,32,318.63,32.86c-3.57,3-8.17,4.26-9.66,8.91,2,0,3.18-1.69,4.85-2.42,4.91-3.44,13.3-4.11,15.19-10.46.57-2.92,1.66-7.58-2.3-8.37-20.89-4.13-58.71.74-57.16,28.8a5.14,5.14,0,0,0,2.61,4.51c11.7,8.41,30,3.31,38.93,15.73-12.29,10.32-31.83,10.67-46.89,8.68l.07-.39Zm59-35.65c-8.16,2.84-23.77,17-25.29.46a48.44,48.44,0,0,0-12.85,3.77c12.42,3.79,26.09,6.34,33.85,18L326.85,58C319.63,52.32,324.42,46.11,327.43,40ZM271.82,69.87c1.42,1,1.74,3,3.64,2.67,8.07-1.09,16.47-.63,24.17-3.48-6.59-2.67-14.27-3-21.17-5.19C275.63,64.35,274.12,68.05,271.82,69.87Zm221.68.77c.76-3.54-2-5-4.38-3.36-2.43,2.17-7.3,9.08-4.56,12C488.85,81.35,492.82,73.89,493.5,70.64Zm21.37-8.08c-3.45-1.55-4.82.37-7.15,2.4l.26.37C510.46,65.27,512.48,64,514.87,62.56Zm-458.52-36L56,26.25l-6.1,6,.21.31C53.52,32.76,54.34,28.59,56.35,26.51Zm290.3,38.38.16.21,3.27-2.75-.85-2.62C348.3,61.59,347.48,63.24,346.65,64.89Z"/><path class="cls-2" d="M94,47.85C90.34,54.54,88.09,61,89.76,68.29c-13.53,11.41-16.1-3.56-7.17-12.18C86.36,53.19,89.9,50.44,94,47.85Z"/><path class="cls-2" d="M218.47,43.89c-3,5.87-6.37,12.36-3.94,19.07-1.35,4.05-12.25,8.33-12.68,1.59C201.67,54.43,210.47,48.47,218.47,43.89Z"/><path class="cls-2" d="M162.36,66.05c9.91-18.81,31.72-26.7,9.82,0a1.31,1.31,0,0,1-1.12.43C168.35,65.18,165.56,65.31,162.36,66.05Z"/><path class="cls-2" d="M411.27,50.35c-2.18,6.2-6.47,12.28-3.91,18.93a1.37,1.37,0,0,1-.62,2c-8.82,6.81-14.41,4-10.51-7.08C398.81,57.6,406.15,54.67,411.27,50.35Z"/><path class="cls-2" d="M551.26,45.86c-2.92,6.3-6.64,12.45-3.6,20-8.29,6.25-15.67,6.38-11.73-6.09,2.43-6.68,10-9.62,15-14.2Z"/></g></g></svg>